<?xml version="1.0" encoding="utf-8"?>
<!-- Generator: Adobe Illustrator 22.1.0, SVG Export Plug-In . SVG Version: 6.00 Build 0)  -->
<svg version="1.1" id="Layer_1" xmlns="http://www.w3.org/2000/svg" xmlns:xlink="http://www.w3.org/1999/xlink" x="0px" y="0px"
	 viewBox="0 0 2306.4 1918.3" style="enable-background:new 0 0 2306.4 1918.3;" xml:space="preserve">
<style type="text/css">
	.st0{fill:none;}
	.st1{fill:url(#SVGID_1_);}
	.st2{fill:url(#SVGID_2_);}
	.st3{fill:url(#SVGID_3_);}
	.st4{fill:url(#SVGID_4_);}
	.st5{fill:url(#SVGID_5_);}
	.st6{fill:url(#SVGID_6_);}
	.st7{fill:url(#SVGID_7_);}
	.st8{fill:url(#SVGID_8_);}
	.st9{fill:url(#SVGID_9_);}
	.st10{fill:url(#SVGID_10_);}
	.st11{fill:url(#SVGID_11_);}
	.st12{fill:url(#SVGID_12_);}
	.st13{fill:url(#SVGID_13_);}
	.st14{fill:url(#SVGID_14_);}
	.st15{fill:url(#SVGID_15_);}
	.st16{fill:url(#SVGID_16_);}
	.st17{fill:url(#SVGID_17_);}
	.st18{fill:url(#SVGID_18_);}
	.st19{fill:url(#SVGID_19_);}
	.st20{fill:url(#SVGID_20_);}
	.st21{fill:url(#SVGID_21_);}
	.st22{fill:url(#SVGID_22_);}
	.st23{fill:url(#SVGID_23_);}
	.st24{fill:url(#SVGID_24_);}
	.st25{fill:url(#SVGID_25_);}
	.st26{fill:url(#SVGID_26_);}
</style>
<title>Asset 1</title>
<path class="st0" d="M807.7,1205.7c0.3,0.3,0.6,0.6,0.9,0.9C808.3,1206.3,808,1206,807.7,1205.7
	C807.7,1205.7,807.7,1205.7,807.7,1205.7z"/>
<linearGradient id="SVGID_1_" gradientUnits="userSpaceOnUse" x1="1640.4827" y1="-131.3798" x2="330.6981" y2="1672.7024">
	<stop  offset="0" style="stop-color:#A2C7E2"/>
	<stop  offset="0.23" style="stop-color:#7E7EAA"/>
	<stop  offset="0.32" style="stop-color:#0D0208"/>
	<stop  offset="0.42" style="stop-color:#10050B"/>
	<stop  offset="0.54" style="stop-color:#10050B"/>
	<stop  offset="0.64" style="stop-color:#10050B"/>
	<stop  offset="0.66" style="stop-color:#190F18"/>
	<stop  offset="0.7" style="stop-color:#322A3C"/>
	<stop  offset="0.75" style="stop-color:#595575"/>
	<stop  offset="0.76" style="stop-color:#615E81"/>
</linearGradient>
<path class="st1" d="M760.6,1103.8c-0.7-0.8-1.5-1.6-2.3-2.3c-0.7-0.7-1.5-1.3-2.3-1.9l-2-1.6l-6.6-5.1c-2.8-2.1-5.8-3.8-8.9-5
	c-0.5-0.2-0.9-0.3-1.4-0.5c-10.3-3.4-21.6-1.9-30.7,4c0.4-0.3,0.8-0.5,1.2-0.8c5-3,10.6-4.6,16.2-5c-10.1,0.5-19.9,5.3-26.5,14
	l-12.7,16.7l-41.8,54.8c-2.4,3.1-4.2,6.6-5.4,10.2c-1.2,3.6-1.8,7.3-1.8,11c-0.1,5.8,1.4,11.7,4.1,16.9c-1.7-3.3-2.9-6.9-3.5-10.5
	c1.1,6.6,4.1,12.9,8.9,18.1c0.7,0.7,1.4,1.4,2.1,2.1c0.8,0.7,1.6,1.4,2.5,2l8.5,6.5c15.6,11.9,38,8.8,50-6.8l54.4-71.4
	c0.2-0.2,0.4-0.5,0.6-0.8c0-0.1,0.1-0.2,0.2-0.3c0.2-0.2,0.4-0.5,0.6-0.8c0.1-0.1,0.2-0.3,0.3-0.4c0,0,0,0,0,0c0,0,0,0,0,0
	c0.2-0.2,0.3-0.5,0.5-0.8c0,0,0-0.1,0.1-0.1c0,0,0-0.1,0.1-0.1c0,0,0-0.1,0.1-0.1c0.1-0.1,0.1-0.1,0.1-0.2c0,0,0-0.1,0-0.1
	c0.1-0.1,0.1-0.2,0.2-0.4c0.1-0.2,0.2-0.3,0.3-0.5c0-0.1,0.1-0.1,0.1-0.1c0.1-0.2,0.2-0.3,0.2-0.5c0.1-0.1,0.1-0.1,0.1-0.2
	c0,0,0,0,0,0c0.2-0.4,0.4-0.8,0.6-1.2c0.1-0.3,0.2-0.5,0.3-0.7c0.1-0.2,0.2-0.5,0.3-0.7c-0.1,0.2-0.1,0.3-0.2,0.4
	c0.1-0.2,0.2-0.3,0.2-0.5c0,0,0,0,0,0c0,0,0,0,0,0c0.1-0.2,0.1-0.4,0.2-0.6c0-0.2,0.1-0.5,0.2-0.7c0.1-0.2,0.1-0.3,0.2-0.5
	c0.2-0.6,0.4-1.3,0.5-1.9c0-0.1,0.1-0.3,0.1-0.4c0.2-0.8,0.3-1.5,0.5-2.3c0,0,0-0.1,0-0.1c0.1-0.4,0.1-0.7,0.2-1.1v-0.3
	c0.1-0.4,0.1-0.9,0.2-1.5C770.8,1121.5,767.5,1111.3,760.6,1103.8z M637.6,1181.3c1.2-3.6,3-7,5.4-10.2
	C640.6,1174.3,638.8,1177.8,637.6,1181.3c-1.2,3.7-1.8,7.4-1.8,11C635.8,1188.6,636.4,1184.9,637.6,1181.3z M635.9,1195.8
	c0.1,0.9,0.2,1.8,0.3,2.7C636.1,1197.6,636,1196.7,635.9,1195.8z M635.9,1191c0.3-6.9,2.6-13.8,7.2-19.8
	C638.6,1177.1,636.2,1184.1,635.9,1191z M684.8,1116.3l12.6-16.6c0.2-0.3,0.4-0.5,0.6-0.8c-0.2,0.2-0.4,0.4-0.5,0.7L684.8,1116.3z
	 M698.9,1098c-0.2,0.2-0.4,0.4-0.5,0.6C698.5,1098.4,698.6,1098.3,698.9,1098C698.8,1098,698.8,1098,698.9,1098
	C698.9,1098,698.9,1098,698.9,1098z M701.1,1095.7c0.3-0.3,0.5-0.5,0.8-0.7c0.3-0.2,0.5-0.5,0.8-0.7c0.2-0.2,0.5-0.4,0.7-0.6
	c0.1-0.1,0.2-0.2,0.3-0.3c0.2-0.2,0.5-0.3,0.7-0.5c-0.6,0.4-1.2,0.9-1.7,1.4C702,1094.8,701.5,1095.2,701.1,1095.7z M704.5,1092.7
	c0.6-0.4,1.1-0.8,1.7-1.2C705.7,1091.9,705.1,1092.3,704.5,1092.7z"/>
<path class="st0" d="M1150.7,882.9c21.8,0.1,52.1,17.7,122.5,65.8c150.2,102.6,212.8,146.1,212.8,146.1l0,0
	c-0.2-0.2-62.9-43.6-212.8-146.1C1202.7,900.6,1172.5,883,1150.7,882.9z"/>
<linearGradient id="SVGID_2_" gradientUnits="userSpaceOnUse" x1="881.5673" y1="23.5558" x2="943.4315" y2="23.9424" gradientTransform="matrix(1 0 0 1 0 1074.908)">
	<stop  offset="0" style="stop-color:#A2C7E2"/>
	<stop  offset="0.51" style="stop-color:#7E7EAA"/>
	<stop  offset="1" style="stop-color:#A2C7E2"/>
</linearGradient>
<path class="st2" d="M931.6,1113.7c0-0.1,0-0.3,0-0.4c0-0.1,0-0.2,0-0.3c-0.1-0.8-0.1-1.5-0.3-2.3c0-0.3-0.1-0.5-0.1-0.8
	c-0.1-0.4-0.1-0.7-0.2-1.1c-0.1-0.3-0.1-0.6-0.2-0.9c0-0.1,0-0.2-0.1-0.3c-0.1-0.4-0.2-0.8-0.3-1.2c0,0,0-0.1,0-0.1
	c-0.1-0.3-0.2-0.7-0.3-1c-0.2-0.6-0.4-1.1-0.6-1.7c-0.1-0.3-0.2-0.6-0.4-0.9c-0.1-0.3-0.2-0.6-0.4-0.9c-0.1-0.3-0.3-0.6-0.4-0.9
	c0,0,0-0.1,0-0.1c0,0,0,0,0,0c-0.1-0.2-0.2-0.3-0.3-0.5c-0.1-0.2-0.2-0.4-0.3-0.7c-0.1-0.2-0.2-0.3-0.3-0.5c0,0,0,0,0-0.1
	c-0.2-0.3-0.4-0.6-0.6-0.9c-0.1-0.2-0.3-0.4-0.4-0.7c0,0,0,0,0,0c-0.2-0.2-0.3-0.5-0.5-0.8c-0.9-1.4-1.9-2.7-3-3.9
	c-0.2-0.2-0.4-0.4-0.6-0.6c-0.2-0.2-0.4-0.4-0.6-0.6c-0.3-0.3-0.6-0.6-0.9-0.9c-0.7-0.7-1.5-1.3-2.4-2l-8.1-6.2
	c-0.4-0.3-0.8-0.6-1.2-0.8c-0.6-0.4-1.2-0.8-1.8-1.2c-0.4-0.2-0.7-0.4-1.1-0.6c-0.5-0.3-0.9-0.5-1.4-0.7c-1.1-0.5-2.2-1-3.3-1.5
	c-0.4-0.2-0.8-0.3-1.1-0.4c-0.4-0.1-0.9-0.3-1.3-0.4c-0.4-0.1-0.9-0.2-1.3-0.4c0,0,0,0,0,0c-0.4-0.1-0.9-0.2-1.3-0.3
	c-0.4-0.1-0.8-0.2-1.2-0.2c-0.1,0-0.2,0-0.3,0c0.3,0,0.6,0.1,0.9,0.2c0.2,0,0.4,0.1,0.6,0.1h0c0.5,0.1,0.9,0.2,1.3,0.3
	c0.4,0.1,0.9,0.2,1.3,0.4c0.4,0.1,0.9,0.3,1.3,0.4c0.4,0.2,0.9,0.3,1.3,0.5c0.4,0.1,0.7,0.3,1.1,0.5c0.3,0.1,0.6,0.3,1,0.4
	c2.2,1,4.4,2.3,6.4,3.9l6.3,4.8l1.8,1.4c0.8,0.6,1.6,1.3,2.3,1.9c0.8,0.7,1.5,1.4,2.2,2.2c0.4,0.5,0.8,1,1.2,1.4
	c5.7,7,8.4,16.1,7.4,25c-0.1,0.5-0.1,1-0.2,1.4v0.3c0,0,0-0.1,0-0.1c0,0,0,0,0,0c0-0.1,0-0.2,0.1-0.4v0.1c0-0.1,0-0.2,0-0.3
	c0-0.2,0.1-0.3,0.1-0.5c0,0,0,0,0-0.1c0-0.1,0-0.2,0.1-0.3c0-0.1,0-0.1,0-0.2c0-0.3,0-0.6,0.1-0.9c0,0,0,0,0,0c0-0.3,0-0.6,0.1-0.9
	v-0.4c0-0.1,0-0.3,0-0.4v-0.2c0-0.4,0-0.8,0-1.2v-0.3C931.7,1114.3,931.6,1114,931.6,1113.7z M931.6,1113.7c0-0.1,0-0.3,0-0.4
	c0-0.1,0-0.2,0-0.3c-0.1-0.8-0.1-1.5-0.3-2.3c0-0.3-0.1-0.5-0.1-0.8c-0.1-0.4-0.1-0.7-0.2-1.1c-0.1-0.3-0.1-0.6-0.2-0.9
	c0-0.1,0-0.2-0.1-0.3c-0.1-0.4-0.2-0.8-0.3-1.2c0,0,0-0.1,0-0.1c-0.1-0.3-0.2-0.7-0.3-1c-0.2-0.6-0.4-1.1-0.6-1.7
	c-0.1-0.3-0.2-0.6-0.4-0.9c-0.1-0.3-0.2-0.6-0.4-0.9c-0.1-0.3-0.3-0.6-0.4-0.9c0,0,0-0.1,0-0.1c0,0,0,0,0,0
	c-0.1-0.2-0.2-0.3-0.3-0.5c-0.1-0.2-0.2-0.4-0.3-0.7c-0.1-0.2-0.2-0.3-0.3-0.5c0,0,0,0,0-0.1c-0.2-0.3-0.4-0.6-0.6-0.9
	c-0.1-0.2-0.3-0.4-0.4-0.7c0,0,0,0,0,0c-0.2-0.2-0.3-0.5-0.5-0.8c-0.9-1.4-1.9-2.7-3-3.9c-0.2-0.2-0.4-0.4-0.6-0.6
	c-0.2-0.2-0.4-0.4-0.6-0.6c-0.3-0.3-0.6-0.6-0.9-0.9c-0.7-0.7-1.5-1.3-2.4-2l-8.1-6.2c-0.4-0.3-0.8-0.6-1.2-0.8
	c-0.6-0.4-1.2-0.8-1.8-1.2c-0.4-0.2-0.7-0.4-1.1-0.6c-0.5-0.3-0.9-0.5-1.4-0.7c-1.1-0.5-2.2-1-3.3-1.5c-0.4-0.2-0.8-0.3-1.1-0.4
	c-0.4-0.1-0.9-0.3-1.3-0.4c-0.4-0.1-0.9-0.2-1.3-0.4c0,0,0,0,0,0c-0.4-0.1-0.9-0.2-1.3-0.3c-0.4-0.1-0.8-0.2-1.2-0.2
	c-0.1,0-0.2,0-0.3,0c0.3,0,0.6,0.1,0.9,0.2c0.2,0,0.4,0.1,0.6,0.1h0c0.5,0.1,0.9,0.2,1.3,0.3c0.4,0.1,0.9,0.2,1.3,0.4
	c0.4,0.1,0.9,0.3,1.3,0.4c0.4,0.2,0.9,0.3,1.3,0.5c0.4,0.1,0.7,0.3,1.1,0.5c0.3,0.1,0.6,0.3,1,0.4c2.2,1,4.4,2.3,6.4,3.9l6.3,4.8
	l1.8,1.4c0.8,0.6,1.6,1.3,2.3,1.9c0.8,0.7,1.5,1.4,2.2,2.2c0.4,0.5,0.8,1,1.2,1.4c5.7,7,8.4,16.1,7.4,25c-0.1,0.5-0.1,1-0.2,1.4v0.3
	c0,0,0-0.1,0-0.1c0,0,0,0,0,0c0-0.1,0-0.2,0.1-0.4v0.1c0-0.1,0-0.2,0-0.3c0-0.2,0.1-0.3,0.1-0.5c0,0,0,0,0-0.1c0-0.1,0-0.2,0.1-0.3
	c0-0.1,0-0.1,0-0.2c0-0.3,0-0.6,0.1-0.9c0,0,0,0,0,0c0-0.3,0-0.6,0.1-0.9v-0.4c0-0.1,0-0.3,0-0.4v-0.2c0-0.4,0-0.8,0-1.2v-0.3
	C931.7,1114.3,931.6,1114,931.6,1113.7z M931.1,1121.4c0,0,0-0.1,0-0.1c0,0,0,0,0,0c0-0.1,0-0.2,0-0.3v-0.1
	C931.2,1121.1,931.1,1121.3,931.1,1121.4C931.1,1121.4,931.1,1121.4,931.1,1121.4z M931.1,1121.4
	C931.1,1121.4,931.1,1121.4,931.1,1121.4L931.1,1121.4C931.1,1121.5,931.1,1121.4,931.1,1121.4z M931.1,1121.4
	C931.1,1121.4,931.1,1121.4,931.1,1121.4c0,0,0-0.1,0-0.1c0,0,0,0,0,0c0-0.1,0-0.2,0-0.3v-0.1
	C931.2,1121.1,931.1,1121.3,931.1,1121.4z M931.1,1121.4C931.1,1121.4,931.1,1121.4,931.1,1121.4L931.1,1121.4
	C931.1,1121.5,931.1,1121.4,931.1,1121.4z M931.6,1113.7c0-0.1,0-0.3,0-0.4c0-0.1,0-0.2,0-0.3c-0.1-0.8-0.1-1.5-0.3-2.3
	c0-0.3-0.1-0.5-0.1-0.8c-0.1-0.4-0.1-0.7-0.2-1.1c-0.1-0.3-0.1-0.6-0.2-0.9c0-0.1,0-0.2-0.1-0.3c-0.1-0.4-0.2-0.8-0.3-1.2
	c0,0,0-0.1,0-0.1c-0.1-0.3-0.2-0.7-0.3-1c-0.2-0.6-0.4-1.1-0.6-1.7c-0.1-0.3-0.2-0.6-0.4-0.9c-0.1-0.3-0.2-0.6-0.4-0.9
	c-0.1-0.3-0.3-0.6-0.4-0.9c0,0,0-0.1,0-0.1c0,0,0,0,0,0c-0.1-0.2-0.2-0.3-0.3-0.5c-0.1-0.2-0.2-0.4-0.3-0.7
	c-0.1-0.2-0.2-0.3-0.3-0.5c0,0,0,0,0-0.1c-0.2-0.3-0.4-0.6-0.6-0.9c-0.1-0.2-0.3-0.4-0.4-0.7c0,0,0,0,0,0c-0.2-0.2-0.3-0.5-0.5-0.8
	c-0.9-1.4-1.9-2.7-3-3.9c-0.2-0.2-0.4-0.4-0.6-0.6c-0.2-0.2-0.4-0.4-0.6-0.6c-0.3-0.3-0.6-0.6-0.9-0.9c-0.7-0.7-1.5-1.3-2.4-2
	l-8.1-6.2c-0.4-0.3-0.8-0.6-1.2-0.8c-0.6-0.4-1.2-0.8-1.8-1.2c-0.4-0.2-0.7-0.4-1.1-0.6c-0.8-0.4-1.6-0.9-2.5-1.2
	c2.2,1,4.4,2.3,6.4,3.9l6.3,4.8l1.8,1.4c0.8,0.6,1.6,1.3,2.3,1.9c0.8,0.7,1.5,1.4,2.2,2.2c0.4,0.5,0.8,1,1.2,1.4
	c5.7,7,8.4,16.1,7.4,25c-0.1,0.5-0.1,1-0.2,1.4v0.3c0,0,0-0.1,0-0.1c0,0,0,0,0,0c0-0.1,0-0.2,0.1-0.4v0.1c0-0.1,0-0.2,0-0.3
	c0-0.2,0.1-0.3,0.1-0.5c0,0,0,0,0-0.1c0-0.1,0-0.2,0.1-0.3c0-0.1,0-0.1,0-0.2c0-0.3,0-0.6,0.1-0.9c0,0,0,0,0,0c0-0.3,0-0.6,0.1-0.9
	v-0.4c0-0.1,0-0.3,0-0.4v-0.2c0-0.4,0-0.8,0-1.2v-0.3C931.7,1114.3,931.6,1114,931.6,1113.7z"/>
<linearGradient id="SVGID_3_" gradientUnits="userSpaceOnUse" x1="524.8241" y1="-3662.6296" x2="537.9266" y2="175.7822" gradientTransform="matrix(1 0 0 1 0 1074.908)">
	<stop  offset="0" style="stop-color:#A2C7E2"/>
	<stop  offset="0.23" style="stop-color:#7E7EAA"/>
	<stop  offset="0.32" style="stop-color:#0D0208"/>
	<stop  offset="0.35" style="stop-color:#10050B"/>
	<stop  offset="0.42" style="stop-color:#10050B"/>
	<stop  offset="0.48" style="stop-color:#10050B"/>
	<stop  offset="0.54" style="stop-color:#190F18"/>
	<stop  offset="0.67" style="stop-color:#322A3C"/>
	<stop  offset="0.84" style="stop-color:#595575"/>
	<stop  offset="0.87" style="stop-color:#615E81"/>
</linearGradient>
<path class="st3" d="M537.2,949.7c-0.2,0.2-0.4,0.3-0.6,0.5l0,0L537.2,949.7z"/>
<linearGradient id="SVGID_4_" gradientUnits="userSpaceOnUse" x1="-617.6929" y1="-132.1724" x2="2851.988" y2="-110.4921" gradientTransform="matrix(1 0 0 1 0 1074.908)">
	<stop  offset="0" style="stop-color:#A2C7E2"/>
	<stop  offset="0.51" style="stop-color:#7E7EAA"/>
	<stop  offset="1" style="stop-color:#FFFFFF"/>
</linearGradient>
<path class="st4" d="M537.2,949.7c-0.2,0.2-0.4,0.3-0.6,0.5l0,0L537.2,949.7z"/>
<linearGradient id="SVGID_5_" gradientUnits="userSpaceOnUse" x1="513.5418" y1="-12768.4844" x2="568.0453" y2="3198.4783">
	<stop  offset="0" style="stop-color:#A2C7E2"/>
	<stop  offset="0.23" style="stop-color:#7E7EAA"/>
	<stop  offset="0.32" style="stop-color:#0D0208"/>
	<stop  offset="0.35" style="stop-color:#10050B"/>
	<stop  offset="0.42" style="stop-color:#10050B"/>
	<stop  offset="0.48" style="stop-color:#10050B"/>
	<stop  offset="0.54" style="stop-color:#190F18"/>
	<stop  offset="0.67" style="stop-color:#322A3C"/>
	<stop  offset="0.84" style="stop-color:#595575"/>
	<stop  offset="0.87" style="stop-color:#615E81"/>
</linearGradient>
<path class="st5" d="M538.1,965.7l462.8-220.4c0.8-0.3,1.6-0.6,2.3-0.8c-0.1,0-0.2-0.1-0.3-0.1l0.1,0c0,0-0.1,0-0.1,0
	C735,665.7,524,412.2,524,119.8c0-2.2,0-4.4,0-6.6H114c0,1.1,0,2.2,0,3.4c0,348.5,166.1,657.6,422.4,849.9l0,0l0,0
	c0.1,0.1,0.1,0.1,0.2,0.2c0.2-0.2,0.4-0.3,0.6-0.5l0.4-0.2c0,0,0.1-0.1,0.1-0.1l0,0c0,0-0.1,0.1-0.1,0.1l-0.3,0.3
	C537.6,966.1,537.8,965.9,538.1,965.7z"/>
<linearGradient id="SVGID_6_" gradientUnits="userSpaceOnUse" x1="537.6" y1="-125.5079" x2="537.6" y2="-125.5079" gradientTransform="matrix(1 0 0 1 0 1074.908)">
	<stop  offset="0" style="stop-color:#A2C7E2"/>
	<stop  offset="0.23" style="stop-color:#7E7EAA"/>
	<stop  offset="0.32" style="stop-color:#0D0208"/>
	<stop  offset="0.35" style="stop-color:#10050B"/>
	<stop  offset="0.42" style="stop-color:#10050B"/>
	<stop  offset="0.48" style="stop-color:#10050B"/>
	<stop  offset="0.54" style="stop-color:#190F18"/>
	<stop  offset="0.67" style="stop-color:#322A3C"/>
	<stop  offset="0.84" style="stop-color:#595575"/>
	<stop  offset="0.87" style="stop-color:#615E81"/>
</linearGradient>
<path class="st6" d="M537.6,949.4"/>
<linearGradient id="SVGID_7_" gradientUnits="userSpaceOnUse" x1="537.6" y1="-125.5079" x2="537.6" y2="-125.5079" gradientTransform="matrix(1 0 0 1 0 1074.908)">
	<stop  offset="0" style="stop-color:#A2C7E2"/>
	<stop  offset="0.51" style="stop-color:#7E7EAA"/>
	<stop  offset="1" style="stop-color:#FFFFFF"/>
</linearGradient>
<path class="st7" d="M537.6,949.4"/>
<linearGradient id="SVGID_8_" gradientUnits="userSpaceOnUse" x1="1769.8" y1="-124.7079" x2="1769.8" y2="-124.7079" gradientTransform="matrix(1 0 0 1 0 1074.908)">
	<stop  offset="0" style="stop-color:#A2C7E2"/>
	<stop  offset="0.51" style="stop-color:#7E7EAA"/>
	<stop  offset="1" style="stop-color:#FFFFFF"/>
</linearGradient>
<path class="st8" d="M1769.8,950.2L1769.8,950.2L1769.8,950.2L1769.8,950.2L1769.8,950.2L1769.8,950.2L1769.8,950.2z"/>
<linearGradient id="SVGID_9_" gradientUnits="userSpaceOnUse" x1="1769.8" y1="-124.7079" x2="1769.8" y2="-124.7079" gradientTransform="matrix(1 0 0 1 0 1074.908)">
	<stop  offset="0" style="stop-color:#A2C7E2"/>
	<stop  offset="0.23" style="stop-color:#7E7EAA"/>
	<stop  offset="0.32" style="stop-color:#0D0208"/>
	<stop  offset="0.35" style="stop-color:#10050B"/>
	<stop  offset="0.42" style="stop-color:#10050B"/>
	<stop  offset="0.48" style="stop-color:#10050B"/>
	<stop  offset="0.54" style="stop-color:#190F18"/>
	<stop  offset="0.67" style="stop-color:#322A3C"/>
	<stop  offset="0.84" style="stop-color:#595575"/>
	<stop  offset="0.87" style="stop-color:#615E81"/>
</linearGradient>
<path class="st9" d="M1769.8,950.2L1769.8,950.2L1769.8,950.2L1769.8,950.2L1769.8,950.2L1769.8,950.2L1769.8,950.2z"/>
<linearGradient id="SVGID_10_" gradientUnits="userSpaceOnUse" x1="1769.8" y1="-124.7079" x2="1769.8" y2="-124.7079" gradientTransform="matrix(1 0 0 1 0 1074.908)">
	<stop  offset="0" style="stop-color:#A2C7E2"/>
	<stop  offset="0.23" style="stop-color:#7E7EAA"/>
	<stop  offset="0.32" style="stop-color:#0D0208"/>
	<stop  offset="0.35" style="stop-color:#10050B"/>
	<stop  offset="0.42" style="stop-color:#10050B"/>
	<stop  offset="0.48" style="stop-color:#10050B"/>
	<stop  offset="0.54" style="stop-color:#190F18"/>
	<stop  offset="0.67" style="stop-color:#322A3C"/>
	<stop  offset="0.84" style="stop-color:#595575"/>
	<stop  offset="0.87" style="stop-color:#615E81"/>
</linearGradient>
<path class="st10" d="M1769.8,950.2L1769.8,950.2L1769.8,950.2L1769.8,950.2L1769.8,950.2L1769.8,950.2L1769.8,950.2z"/>
<linearGradient id="SVGID_11_" gradientUnits="userSpaceOnUse" x1="1769.8" y1="-124.7079" x2="1769.8" y2="-124.7079" gradientTransform="matrix(1 0 0 1 0 1074.908)">
	<stop  offset="0" style="stop-color:#A2C7E2"/>
	<stop  offset="0.51" style="stop-color:#7E7EAA"/>
	<stop  offset="1" style="stop-color:#FFFFFF"/>
</linearGradient>
<path class="st11" d="M1769.8,950.2L1769.8,950.2L1769.8,950.2L1769.8,950.2L1769.8,950.2z"/>
<linearGradient id="SVGID_12_" gradientUnits="userSpaceOnUse" x1="1769.8" y1="-124.7079" x2="1769.8" y2="-124.7079" gradientTransform="matrix(1 0 0 1 0 1074.908)">
	<stop  offset="0" style="stop-color:#A2C7E2"/>
	<stop  offset="0.23" style="stop-color:#7E7EAA"/>
	<stop  offset="0.32" style="stop-color:#0D0208"/>
	<stop  offset="0.35" style="stop-color:#10050B"/>
	<stop  offset="0.42" style="stop-color:#10050B"/>
	<stop  offset="0.48" style="stop-color:#10050B"/>
	<stop  offset="0.54" style="stop-color:#190F18"/>
	<stop  offset="0.67" style="stop-color:#322A3C"/>
	<stop  offset="0.84" style="stop-color:#595575"/>
	<stop  offset="0.87" style="stop-color:#615E81"/>
</linearGradient>
<path class="st12" d="M1769.8,950.2L1769.8,950.2L1769.8,950.2L1769.8,950.2L1769.8,950.2z"/>
<linearGradient id="SVGID_13_" gradientUnits="userSpaceOnUse" x1="-1236.3317" y1="1278.8655" x2="3345.925" y2="1274.5588">
	<stop  offset="0" style="stop-color:#A2C7E2"/>
	<stop  offset="0.51" style="stop-color:#7E7EAA"/>
	<stop  offset="1" style="stop-color:#A2C7E2"/>
</linearGradient>
<path class="st13" d="M1042.8,1162.2c0,0,26.1-20.2,54.9-4.8c1.2,0.7,2.5,1.3,3.7,2.2c36.5,26.2,14.9,61.5,14.9,61.5
	c0,0,5.6,3.5,5.6,3.5c0,0,0,0,0.1,0c0.2-0.1,0.5-0.3,1-0.6c0.1-0.1,0.2-0.1,0.4-0.2c0,0,0.1,0,0.1-0.1c0.2-0.1,0.4-0.2,0.6-0.3
	c0.3-0.2,0.7-0.3,1.1-0.5c0.4-0.2,0.8-0.3,1.2-0.5c0.2-0.1,0.4-0.2,0.6-0.3h0c0.2-0.1,0.5-0.2,0.7-0.3c0.3-0.1,0.6-0.2,0.9-0.3
	c0.2-0.1,0.4-0.1,0.6-0.2c0.5-0.2,1.1-0.3,1.6-0.5c0.4-0.1,0.9-0.2,1.3-0.4c0.1,0,0.3-0.1,0.5-0.1c0.3-0.1,0.6-0.1,0.9-0.2
	c0,0,0,0,0,0c0.3-0.1,0.7-0.1,1-0.2c0.3-0.1,0.7-0.1,1-0.2c0.3-0.1,0.7-0.1,1-0.2c0.4,0,0.7-0.1,1.1-0.2c0.3,0,0.6-0.1,0.9-0.1
	c0.5,0,1-0.1,1.5-0.1c0.5,0,1-0.1,1.5-0.1h0.2c0.5,0,1,0,1.6,0c0.3,0,0.6,0,0.9,0c0.3,0,0.6,0,0.9,0c0.5,0,0.9,0,1.4,0.1
	c0.1,0,0.3,0,0.4,0c0.6,0,1.1,0.1,1.7,0.2c0.6,0.1,1.2,0.1,1.8,0.2c0.3,0,0.5,0.1,0.8,0.1c2,0.3,4,0.8,6.1,1.4
	c1.3,0.4,2.6,0.8,4,1.3c0.7,0.3,1.4,0.5,2.1,0.8c0.4,0.2,0.7,0.3,1.1,0.5c0.7,0.3,1.4,0.6,2.2,1l-1.2-0.5c0.4,0.2,2.8,1.3,2.4,1.1
	c-1.2-0.6,2.6,1.1,3.7,2c34,28.1-21,98-21,98s0.1,0.1,0.2,0.3c0,0,0.1,0.1,0.1,0.1c0,0,0.1,0.1,0.1,0.1c0.1,0.1,0.1,0.1,0.2,0.2
	c0.1,0.1,0.2,0.2,0.4,0.4c0.1,0.1,0.1,0.1,0.2,0.2l0.2,0.2c0.1,0.1,0.2,0.2,0.3,0.3c0.1,0.1,0.2,0.2,0.3,0.3
	c0.2,0.2,0.4,0.4,0.7,0.6h0c0.2,0.2,0.3,0.3,0.5,0.5c0.2,0.2,0.4,0.3,0.6,0.5c0.2,0.2,0.4,0.4,0.6,0.5c5.1,4.4,15,11.6,31.6,19.1
	c1.5,0.7,3.1,1.4,4.7,2.1c0.5,0.2,1.1,0.5,1.7,0.7c0.4,0.2,0.9,0.4,1.3,0.5c0.5,0.2,0.9,0.4,1.4,0.6c0.6,0.2,1.2,0.5,1.8,0.7
	c0.2,0.1,0.4,0.2,0.6,0.2h0c1.2,0.5,2.4,0.9,3.6,1.4c1.2,0.5,2.5,0.9,3.8,1.4c0.5,0.2,1.1,0.4,1.6,0.5c1.6,0.5,3.1,1,4.6,1.4
	c1,0.3,2,0.5,2.9,0.7c1.4,0.3,2.8,0.6,4.1,0.8c0.4,0.1,0.9,0.1,1.3,0.2c0.9,0.1,1.7,0.2,2.5,0.3c3.3,0.3,6.2,0.3,9,0
	c1-0.1,2-0.2,2.9-0.4c0.4-0.1,0.8-0.2,1.2-0.2c0.4-0.1,0.8-0.2,1.3-0.3c2.1-0.5,3.9-1.2,5.6-2c7.4-3.4,11.3-8.8,13.1-12
	c0.1-0.1,0.2-0.3,0.2-0.4c0.1-0.2,0.2-0.4,0.3-0.5c0.1-0.2,0.2-0.3,0.2-0.5c0.1-0.1,0.1-0.3,0.2-0.4c0-0.1,0.1-0.2,0.1-0.3
	c0-0.1,0-0.1,0.1-0.1c0-0.1,0.1-0.2,0.1-0.2c0,0,0-0.1,0-0.1c2.3-2,0,0,0,0s0.6-0.7,0.9,0c0.1,0.1,0.3,0,0.5,0c0.1,0,0.2,0,0.3,0
	c0.2,0,0.4,0,0.7,0c0.7,0,1.7,0,2.7,0c16.3,0.3,41.3,9.1,76.8-10.6c0.5-0.3,1.7-1.2,2.2-1.3c0.5-0.1,1-0.3,1.4-0.5
	c0.4-0.2,0.8-0.3,1.2-0.5c1.2-0.5,2.3-1.1,3.3-1.8c13.4-9.2,17-27.9,15.9-40.7c0-0.3-0.1-0.5-0.1-0.8c0-0.5-0.1-0.9-0.1-1.3
	c-0.1-0.5-0.1-0.9-0.1-1.3c0-0.2,0-0.4-0.1-0.6c0-0.2-0.1-0.4-0.1-0.6c0-0.2-0.1-0.4-0.1-0.6c-0.1-0.6-0.1-1.1-0.2-1.6c0,0,0,0,0,0
	c0-0.3-0.1-0.5-0.1-0.7c0-0.1,0-0.2,0-0.3c0-0.2-0.1-0.3-0.1-0.4s0-0.2,0-0.3c0-0.1,0-0.1,0-0.1c4.1,0.3,18.1,1.6,21.9,1.5
	c0.6,0,1.2,0,1.8-0.1c1.3-0.1,2.5-0.1,3.8-0.2c1.1-0.1,2.3-0.2,3.4-0.4c0.2,0,0.4,0,0.6-0.1c0.5-0.1,1-0.2,1.6-0.2
	c0.6-0.1,1.2-0.2,1.8-0.3c1.1-0.2,2.2-0.5,3.2-0.8c1.6-0.4,3.2-0.9,4.8-1.5c5.8-2.1,11.3-5.4,16.7-10.2c0.4-0.3,0.8-0.7,1.2-1.1
	c1.3-1.2,2.5-2.9,3.6-4.8c0.2-0.4,0.5-0.9,0.7-1.3c0,0,0,0,0,0c0.2-0.5,0.4-0.9,0.7-1.4c0.3-0.7,0.6-1.5,0.9-2.3
	c0.2-0.5,0.4-1.1,0.6-1.7c0.1-0.3,0.2-0.6,0.3-0.8c0.1-0.3,0.2-0.6,0.3-0.9c0.2-0.6,0.4-1.2,0.5-1.8c0.2-0.6,0.3-1.2,0.5-1.8
	c0-0.2,0.1-0.3,0.1-0.5c0.1-0.4,0.2-0.8,0.3-1.2c0.1-0.4,0.2-0.8,0.3-1.2c0,0,0,0,0,0c0.2-0.8,0.4-1.6,0.6-2.4
	c0.2-0.9,0.3-1.7,0.5-2.6c0.2-0.9,0.3-1.7,0.5-2.6c0.1-0.9,0.3-1.8,0.4-2.6c0.1-0.9,0.3-1.8,0.4-2.7c0.1-0.9,0.3-1.8,0.4-2.7v0
	c0.2-1.5,0.4-2.9,0.5-4.4c0.1-0.8,0.2-1.6,0.3-2.4c0.1-0.8,0.2-1.6,0.2-2.4c0.2-1.7,0.3-3.4,0.5-5.1c0.2-2.1,0.3-4.1,0.4-6.1
	c0.1-1,0.1-1.9,0.2-2.9c1.6,0.7,3.1,1.4,4.7,2.1c1.5,0.7,2.9,1.3,4.4,2c1,0.4,1.9,0.9,2.8,1.3c1.3,0.6,2.7,1.2,4,1.9
	c1.7,0.8,3.3,1.6,5,2.4c2,0.9,3.9,1.9,5.9,2.9c1.6,0.8,3.2,1.6,4.8,2.4c1.7,0.9,3.5,1.8,5.2,2.6c1.7,0.9,3.4,1.8,5.1,2.7
	c1.7,0.9,3.4,1.8,5.1,2.7c3.3,1.8,6.7,3.6,10,5.5c1.9,1.1,3.7,2.1,5.6,3.2c1.5,0.9,3.1,1.8,4.6,2.7c6.7,3.9,13.3,7.9,19.8,12
	c3.3,2.1,6.5,4.2,9.7,6.3c122.2,80.6,215.5,201.5,260.8,343.8c0.6,1.9,1.2,3.8,1.8,5.6c0.6,1.9,1.2,3.8,1.7,5.6
	c1.1,3.8,2.2,7.6,3.3,11.4c0.5,1.9,1.1,3.8,1.6,5.7c0.5,1.9,1,3.8,1.5,5.7c0.5,1.9,1,3.8,1.5,5.8c0.5,1.9,1,3.8,1.4,5.8
	c0.5,1.9,0.9,3.9,1.4,5.8c0.9,3.9,1.7,7.8,2.6,11.7c0.8,3.9,1.6,7.8,2.3,11.7c0.4,2,0.7,3.9,1.1,5.9c0.7,3.9,1.4,7.9,2,11.8
	c0.3,2,0.6,4,0.9,5.9c0.3,1.9,0.6,3.8,0.8,5.6c0.1,0.4,0.1,0.7,0.2,1.1c0.2,1.5,0.4,3,0.6,4.5c0.2,1.6,0.4,3.2,0.6,4.9
	c0.2,1.1,0.3,2.3,0.4,3.4c0.2,1.7,0.4,3.4,0.6,5.1c0.2,1.8,0.4,3.6,0.6,5.4c0.2,2,0.4,4,0.6,6.1c0.4,4,0.7,8.1,1,12.2
	c0.3,4.1,0.6,8.1,0.8,12.2c0.2,4.1,0.4,8.2,0.6,12.3c0.3,8.2,0.5,16.4,0.5,24.7c0,2.1,0,4.2,0,6.3c0,5.2-0.2,10.3-0.4,15.4h374.8
	c0.2-5.1,0.3-10.3,0.4-15.4c0.1-3.8,0.1-7.7,0.2-11.5c0.1-3.6,0.1-7.2,0.1-10.8c0-340.8-166.6-645-420.5-834.2
	c-172.7-134.9-386.6-216.5-617.9-216.5c-230,0-442.7,80.6-615,214.2l-2.2,0.7c0,0,0,0.1-0.1,0.1
	c-128.1,94.5-233.7,217.7-307.3,360.2c-73.6,142.5-115.2,304.2-115.2,475.6c0,12.6,0.2,25.2,0.7,37.7h409.7v-0.1
	c-0.1-5.1-0.3-10.2-0.3-15.3c0-2.1,0-4.2,0-6.4c0-252.7,145.1-471.4,356.6-577.5c0,0,0.1,0,0.1-0.1c0-0.2,0-0.4,0.1-0.6
	c0-0.6,0-0.6,0.1-1.2c0-0.2,0-0.3,0.1-0.5v-0.3l0-0.1l0.6-2.9c0-0.1,0-0.2,0.1-0.3c0,0,0,0,0,0c0-0.1,0-0.2,0.1-0.2
	c0.1-0.2,0.1-0.4,0.2-0.6c0-0.1,0-0.2,0.1-0.3c0-0.1,0-0.2,0.1-0.2c0.1-0.2,0.1-0.4,0.2-0.6c0-0.1,0.1-0.2,0.1-0.3
	c0-0.1,0.1-0.2,0.1-0.3c0,0,0,0,0,0c0,0,0-0.1,0-0.1c0.2-0.7,0.5-1.4,0.7-2c0.1-0.3,0.2-0.6,0.3-0.9c0.2-0.4,0.3-0.7,0.5-1.1
	c0.3-0.6,0.6-1.1,0.9-1.7c0.1-0.2,0.2-0.4,0.3-0.5c0.3-0.5,0.6-1.1,1-1.6c0-0.1,0.1-0.1,0.1-0.2c0.4-0.7,0.9-1.3,1.4-2l54.7-71.9
	l5.9-7.7c6.2-8.1,15.2-12.7,24.7-13.5c0.2,0,0.4,0,0.6,0c0.8-0.1,1.6-0.1,2.4-0.1h0.3c0.4,0,0.8,0,1.2,0c0.4,0,0.9,0.1,1.3,0.1
	c0.2,0,0.4,0,0.6,0.1c0.3,0,0.6,0.1,0.8,0.1c0.4,0.1,0.8,0.1,1.2,0.2c0,0,0.1,0,0.1,0l0.2,0c0.4,0.1,0.8,0.1,1.1,0.2c0,0,0,0,0,0
	c4.9,1,9.6,3,13.8,6.3l9.3,7c0.5,0.3,0.9,0.7,1.3,1.1c0.3,0.3,0.7,0.6,1,0.9c0.3,0.3,0.7,0.6,1,0.9c4.7,4.7,8.1,10.7,9.5,17.3
	c0,0,0,0,0,0h-0.1c0.7,3.4,0.9,6.9,0.6,10.3c0.1,0.6-0.2,1.3-0.1,1.9 M931.7,1115c0,0.4,0,0.8,0,1.2v0.2c0,0.1,0,0.3,0,0.4v0.4
	c0,0.3,0,0.6-0.1,0.9c0,0,0,0,0,0c0,0.3,0,0.6-0.1,0.9c0,0.1,0,0.1,0,0.2c0,0.1,0,0.2-0.1,0.3c0,0,0,0,0,0.1c0,0.2-0.1,0.4-0.1,0.5
	c0,0.1,0,0.2,0,0.3v-0.1c0,0.2-0.1,0.3-0.1,0.4c0,0,0,0,0,0c0,0,0,0.1,0,0.1v0.1c0,0.1,0,0.2,0,0.3c0,0,0,0,0,0c0,0,0,0.1,0,0.1
	c0,0,0,0,0,0s0,0,0,0c0,0,0,0,0,0c0,0,0,0,0,0.1c0,0.1-0.1,0.3-0.1,0.4c0,0,0,0.1,0,0.1c-0.1,0.7-0.3,1.3-0.4,1.9c0,0,0,0.1,0,0.1
	c0,0,0,0.1,0,0.1c0,0.1,0,0.1,0,0.2c-0.1,0.3-0.1,0.6-0.2,0.9c-0.1,0.4-0.2,0.7-0.3,1.1c-0.1,0.2-0.1,0.3-0.2,0.5
	c-0.1,0.2-0.2,0.5-0.2,0.7c0,0.1-0.1,0.3-0.1,0.4c0,0.1,0,0.1-0.1,0.2c0,0,0,0,0,0c0,0,0,0,0,0c0,0,0,0.1,0,0.1c0,0,0,0.1,0,0.1
	c-0.1,0.2-0.2,0.5-0.3,0.7c-0.2,0.4-0.3,0.8-0.5,1.2c-0.1,0.3-0.3,0.6-0.5,0.9c-0.1,0.2-0.2,0.4-0.3,0.6c0,0.1-0.1,0.1-0.1,0.2
	c-0.1,0.1-0.1,0.2-0.2,0.3c-0.1,0.1-0.1,0.1-0.2,0.2c0,0,0,0.1-0.1,0.1c0,0.1-0.1,0.1-0.1,0.2c0,0,0,0,0,0.1c0,0,0,0.1-0.1,0.1
	c0,0,0,0,0,0.1c0,0,0,0.1-0.1,0.1c-0.1,0.1-0.2,0.3-0.2,0.4c-0.1,0.1-0.1,0.3-0.2,0.4c0,0,0,0,0,0c0,0,0,0,0,0
	c-0.1,0.1-0.2,0.3-0.3,0.4c-0.2,0.3-0.4,0.6-0.6,0.8c-0.1,0.1-0.2,0.2-0.2,0.3c-0.2,0.3-0.4,0.6-0.6,0.8l-51.8,68
	c-11.4,14.9-32.7,17.8-47.6,6.5l-8.1-6.2c-0.8-0.6-1.5-1.2-2.2-1.9c0,0-0.1-0.1-0.1-0.1c-0.4-0.3-0.7-0.7-1-1
	c-0.1-0.1-0.2-0.2-0.2-0.2c-0.3-0.3-0.5-0.5-0.8-0.8c-0.3-0.3-0.6-0.6-0.8-0.9c-0.3-0.3-0.5-0.6-0.8-0.9c-0.3-0.3-0.5-0.7-0.8-1
	c-0.2-0.2-0.3-0.4-0.5-0.6c-0.3-0.4-0.6-0.8-0.8-1.2c-0.5-0.8-1-1.7-1.5-2.5c-2.6-5-4-10.6-3.9-16.1c0-3.5,0.6-7.1,1.8-10.5
	s2.8-6.7,5.1-9.7l39.8-52.2l12.1-15.9c5.8-7.5,14-12,22.7-13.1c0.3,0,0.6-0.1,0.8-0.1c0.1,0,0.3,0,0.4,0c0.1,0,0.1,0,0.2,0
	c0.1,0,0.1,0,0.2,0c0.3,0,0.5,0,0.8-0.1c1-0.1,2-0.1,3,0c0.1,0,0.1,0,0.2,0c0.6,0,1.1,0.1,1.7,0.1c0,0,0.1,0,0.1,0
	c0.3,0,0.7,0.1,1,0.1l0.2,0c0.3,0,0.6,0.1,0.9,0.1c0.1,0,0.2,0,0.3,0c0.4,0.1,0.8,0.1,1.2,0.2c0.4,0.1,0.9,0.2,1.3,0.3c0,0,0,0,0,0
	c0.4,0.1,0.9,0.2,1.3,0.4c0.4,0.1,0.9,0.3,1.3,0.4c0.4,0.1,0.8,0.2,1.1,0.4c1.6,0.6,3.2,1.3,4.7,2.2c0.4,0.2,0.7,0.4,1.1,0.6
	c0.6,0.4,1.2,0.8,1.8,1.2c0.4,0.3,0.8,0.6,1.2,0.8l8.1,6.2c0.8,0.6,1.6,1.3,2.4,2c0.3,0.3,0.6,0.6,0.9,0.9c0.2,0.2,0.4,0.4,0.6,0.6
	c0.2,0.2,0.4,0.4,0.6,0.6c1.1,1.2,2.1,2.5,3,3.9c0.2,0.2,0.3,0.5,0.5,0.8c0,0,0,0,0,0c0.1,0.2,0.3,0.4,0.4,0.7
	c0.2,0.3,0.4,0.6,0.6,0.9c0,0,0,0,0,0.1c0.1,0.2,0.2,0.3,0.3,0.5c0.1,0.2,0.2,0.4,0.3,0.7c0.1,0.2,0.2,0.3,0.3,0.5c0,0,0,0,0,0
	c0,0,0,0.1,0,0.1c0.1,0.3,0.3,0.6,0.4,0.9c0.1,0.3,0.3,0.6,0.4,0.9c0.1,0.3,0.2,0.6,0.4,0.9c0.2,0.6,0.4,1.1,0.6,1.7
	c0.1,0.3,0.2,0.7,0.3,1c0,0,0,0.1,0,0.1c0.1,0.4,0.2,0.8,0.3,1.2c0,0.1,0.1,0.2,0.1,0.3c0.1,0.3,0.2,0.6,0.2,0.9
	c0.1,0.4,0.2,0.7,0.2,1.1c0.1,0.3,0.1,0.5,0.1,0.8c0.1,0.8,0.2,1.5,0.3,2.3c0,0.1,0,0.2,0,0.3c0,0.2,0,0.3,0,0.4c0,0.3,0,0.7,0,1
	V1115z"/>
<linearGradient id="SVGID_14_" gradientUnits="userSpaceOnUse" x1="1769.8" y1="-124.7079" x2="1769.8" y2="-124.7079" gradientTransform="matrix(1 0 0 1 0 1074.908)">
	<stop  offset="0" style="stop-color:#A2C7E2"/>
	<stop  offset="0.23" style="stop-color:#7E7EAA"/>
	<stop  offset="0.32" style="stop-color:#0D0208"/>
	<stop  offset="0.42" style="stop-color:#10050B"/>
	<stop  offset="0.54" style="stop-color:#10050B"/>
	<stop  offset="0.64" style="stop-color:#10050B"/>
	<stop  offset="0.66" style="stop-color:#190F18"/>
	<stop  offset="0.7" style="stop-color:#322A3C"/>
	<stop  offset="0.75" style="stop-color:#595575"/>
	<stop  offset="0.76" style="stop-color:#615E81"/>
</linearGradient>
<path class="st14" d="M1769.8,950.2L1769.8,950.2L1769.8,950.2L1769.8,950.2L1769.8,950.2z"/>
<linearGradient id="SVGID_15_" gradientUnits="userSpaceOnUse" x1="1769.8" y1="-124.7079" x2="1769.8" y2="-124.7079" gradientTransform="matrix(1 0 0 1 0 1074.908)">
	<stop  offset="0" style="stop-color:#A2C7E2"/>
	<stop  offset="0.51" style="stop-color:#7E7EAA"/>
	<stop  offset="1" style="stop-color:#FFFFFF"/>
</linearGradient>
<path class="st15" d="M1769.8,950.2L1769.8,950.2L1769.8,950.2L1769.8,950.2L1769.8,950.2z"/>
<linearGradient id="SVGID_16_" gradientUnits="userSpaceOnUse" x1="1769.8" y1="-124.7079" x2="1769.8" y2="-124.7079" gradientTransform="matrix(1 0 0 1 0 1074.908)">
	<stop  offset="0" style="stop-color:#A2C7E2"/>
	<stop  offset="0.23" style="stop-color:#7E7EAA"/>
	<stop  offset="0.32" style="stop-color:#0D0208"/>
	<stop  offset="0.35" style="stop-color:#10050B"/>
	<stop  offset="0.42" style="stop-color:#10050B"/>
	<stop  offset="0.48" style="stop-color:#10050B"/>
	<stop  offset="0.54" style="stop-color:#190F18"/>
	<stop  offset="0.67" style="stop-color:#322A3C"/>
	<stop  offset="0.84" style="stop-color:#595575"/>
	<stop  offset="0.87" style="stop-color:#615E81"/>
</linearGradient>
<path class="st16" d="M1769.8,950.2L1769.8,950.2L1769.8,950.2L1769.8,950.2L1769.8,950.2z"/>
<linearGradient id="SVGID_17_" gradientUnits="userSpaceOnUse" x1="1106.6499" y1="-387.8551" x2="1106.6499" y2="69.8625" gradientTransform="matrix(1 0 0 1 0 1074.908)">
	<stop  offset="0" style="stop-color:#A2C7E2"/>
	<stop  offset="0.23" style="stop-color:#7E7EAA"/>
	<stop  offset="0.32" style="stop-color:#0D0208"/>
	<stop  offset="0.42" style="stop-color:#10050B"/>
	<stop  offset="0.54" style="stop-color:#10050B"/>
	<stop  offset="0.64" style="stop-color:#10050B"/>
	<stop  offset="0.66" style="stop-color:#190F18"/>
	<stop  offset="0.7" style="stop-color:#322A3C"/>
	<stop  offset="0.75" style="stop-color:#595575"/>
	<stop  offset="0.76" style="stop-color:#615E81"/>
</linearGradient>
<path class="st17" d="M1062.6,930.9c49.4-25.8,63.3-48.1,88.1-48C1125.9,882.8,1112,905.1,1062.6,930.9"/>
<linearGradient id="SVGID_18_" gradientUnits="userSpaceOnUse" x1="104.4717" y1="-174.27" x2="2157.4438" y2="-161.4421" gradientTransform="matrix(1 0 0 1 0 1074.908)">
	<stop  offset="0" style="stop-color:#A2C7E2"/>
	<stop  offset="0.51" style="stop-color:#7E7EAA"/>
	<stop  offset="1" style="stop-color:#FFFFFF"/>
</linearGradient>
<path class="st18" d="M1062.6,930.9c49.4-25.8,63.3-48.1,88.1-48C1125.9,882.8,1112,905.1,1062.6,930.9"/>
<linearGradient id="SVGID_19_" gradientUnits="userSpaceOnUse" x1="1742.4286" y1="-766.3511" x2="862.5507" y2="611.7713" gradientTransform="matrix(1 0 0 1 1.179676e-02 1074.9269)">
	<stop  offset="0" style="stop-color:#A2C7E2"/>
	<stop  offset="0.23" style="stop-color:#7E7EAA"/>
	<stop  offset="0.32" style="stop-color:#0D0208"/>
	<stop  offset="0.42" style="stop-color:#10050B"/>
	<stop  offset="0.54" style="stop-color:#10050B"/>
	<stop  offset="0.64" style="stop-color:#10050B"/>
	<stop  offset="0.66" style="stop-color:#190F18"/>
	<stop  offset="0.7" style="stop-color:#322A3C"/>
	<stop  offset="0.75" style="stop-color:#595575"/>
	<stop  offset="0.76" style="stop-color:#615E81"/>
</linearGradient>
<path class="st19" d="M1153.4,1240.2L1153.4,1240.2c-12.3-9.4-29.9-7-39.3,5.3l-37.2,48.9c-9.4,12.3-7,29.9,5.3,39.3l0,0
	c12.3,9.4,29.9,7,39.3-5.3l37.2-48.9C1168.1,1267.2,1165.7,1249.6,1153.4,1240.2z"/>
<linearGradient id="SVGID_20_" gradientUnits="userSpaceOnUse" x1="1669.8948" y1="-818.409" x2="790.0169" y2="559.7134" gradientTransform="matrix(1 0 0 1 1.681614e-02 1074.9266)">
	<stop  offset="0" style="stop-color:#A2C7E2"/>
	<stop  offset="0.23" style="stop-color:#7E7EAA"/>
	<stop  offset="0.32" style="stop-color:#0D0208"/>
	<stop  offset="0.42" style="stop-color:#10050B"/>
	<stop  offset="0.54" style="stop-color:#10050B"/>
	<stop  offset="0.64" style="stop-color:#10050B"/>
	<stop  offset="0.66" style="stop-color:#190F18"/>
	<stop  offset="0.7" style="stop-color:#322A3C"/>
	<stop  offset="0.75" style="stop-color:#595575"/>
	<stop  offset="0.76" style="stop-color:#615E81"/>
</linearGradient>
<path class="st20" d="M1092,1173.5L1092,1173.5c-16.1-12.2-39-9.1-51.3,6.9l-48.6,63.8c-12.2,16.1-9.1,39,6.9,51.3l0,0
	c16.1,12.2,39,9.1,51.3-6.9l48.6-63.8C1111.2,1208.7,1108.1,1185.8,1092,1173.5z"/>
<linearGradient id="SVGID_21_" gradientUnits="userSpaceOnUse" x1="1933.6053" y1="-165.9659" x2="572.3176" y2="1719.9641">
	<stop  offset="0" style="stop-color:#A2C7E2"/>
	<stop  offset="0.23" style="stop-color:#7E7EAA"/>
	<stop  offset="0.32" style="stop-color:#0D0208"/>
	<stop  offset="0.42" style="stop-color:#10050B"/>
	<stop  offset="0.54" style="stop-color:#10050B"/>
	<stop  offset="0.64" style="stop-color:#10050B"/>
	<stop  offset="0.66" style="stop-color:#190F18"/>
	<stop  offset="0.7" style="stop-color:#322A3C"/>
	<stop  offset="0.75" style="stop-color:#595575"/>
	<stop  offset="0.76" style="stop-color:#615E81"/>
</linearGradient>
<path class="st21" d="M1026,1143.1L1026,1143.1c-1.6-7.8-5.9-14.9-12.7-20.1l-9.3-7c-0.4-0.3-0.8-0.6-1.2-0.9
	c-4-2.8-8.3-4.6-12.7-5.5c0,0,0,0,0,0c-0.4-0.1-0.9-0.2-1.3-0.2c0,0,0,0-0.1,0c-0.4-0.1-0.8-0.1-1.2-0.2c-0.3,0-0.6-0.1-0.8-0.1
	c-0.2,0-0.4-0.1-0.6-0.1c-0.5,0-0.9-0.1-1.4-0.1c-0.4,0-0.8,0-1.2,0h-0.1c-5.6,0-10.9,1.3-15.9,3.8c-0.8,0.4-1.6,0.8-2.4,1.3
	c4.6-2.9,9.8-4.5,15.1-5c-9.4,0.8-18.4,5.4-24.6,13.5l-5.9,7.7l-54.7,71.9c-0.5,0.7-1,1.3-1.4,2c0,0.1-0.1,0.1-0.1,0.2
	c-0.4,0.5-0.7,1.1-1,1.6c-0.1,0.1-0.2,0.3-0.3,0.5c-0.3,0.6-0.6,1.1-0.9,1.7c-0.2,0.4-0.3,0.7-0.5,1.1c-0.1,0.3-0.2,0.5-0.3,0.8
	c-0.2,0.7-0.5,1.4-0.7,2.1c0,0,0,0.1,0,0.2c0,0,0,0,0,0c0,0.1,0,0.2-0.1,0.3c0,0.1-0.1,0.2-0.1,0.3c0,0.2-0.1,0.4-0.2,0.6
	c0,0.1,0,0.1-0.1,0.2c0,0.1,0,0.2-0.1,0.3c-0.1,0.2-0.1,0.4-0.2,0.6c0,0.1,0,0.2-0.1,0.2c0,0,0,0,0,0c0,0.1-0.1,0.2-0.1,0.3
	l-0.6,2.9c0.1,0.1,0,0.2,0,0.3v0.1c0,0.2,0,0.3-0.1,0.5c0,0.6,0,0.6-0.1,1.2c0,0.2,0,0.4-0.1,0.6c0,0-0.1,0-0.1,0.1
	c-0.7,11.1,4,22.4,13.4,29.6l9.3,7.1c15.2,11.5,36.8,8.5,48.3-6.6l60.3-79.2l0.3-0.4c4.1-5.4,6.4-11.5,6.9-17.8
	C1026.9,1150,1026.7,1146.5,1026,1143.1z M889.9,1212.1c0.2-0.7,0.4-1.4,0.7-2.1C890.4,1210.7,890.1,1211.4,889.9,1212.1z
	 M890.9,1209.2c0.2-0.4,0.3-0.7,0.5-1.1C891.3,1208.5,891.1,1208.8,890.9,1209.2z M892.3,1206.4c0.1-0.2,0.2-0.4,0.3-0.5
	C892.5,1206.1,892.4,1206.3,892.3,1206.4z M893.6,1204.2c0-0.1,0.1-0.1,0.1-0.1C893.7,1204.1,893.6,1204.1,893.6,1204.2z
	 M893.7,1204c0.4-0.7,0.9-1.3,1.4-2C894.6,1202.7,894.2,1203.3,893.7,1204z M957.7,1120.1c1.9-2.1,3.9-3.8,6.1-5.3
	C961.6,1116.3,959.5,1118,957.7,1120.1z"/>
<linearGradient id="SVGID_22_" gradientUnits="userSpaceOnUse" x1="1847.5016" y1="-209.3387" x2="486.2138" y2="1676.5913">
	<stop  offset="0" style="stop-color:#A2C7E2"/>
	<stop  offset="0.23" style="stop-color:#7E7EAA"/>
	<stop  offset="0.32" style="stop-color:#0D0208"/>
	<stop  offset="0.42" style="stop-color:#10050B"/>
	<stop  offset="0.54" style="stop-color:#10050B"/>
	<stop  offset="0.64" style="stop-color:#10050B"/>
	<stop  offset="0.66" style="stop-color:#190F18"/>
	<stop  offset="0.7" style="stop-color:#322A3C"/>
	<stop  offset="0.75" style="stop-color:#595575"/>
	<stop  offset="0.76" style="stop-color:#615E81"/>
</linearGradient>
<path class="st22" d="M939.8,1099.7L939.8,1099.7c-1.6-7.8-5.9-14.9-12.7-20.1l-9.3-7c-0.4-0.3-0.8-0.6-1.2-0.9
	c-4-2.8-8.3-4.6-12.7-5.5c0,0,0,0,0,0c-0.4-0.1-0.9-0.2-1.3-0.2c0,0,0,0-0.1,0c-0.4-0.1-0.8-0.1-1.2-0.2c-0.3,0-0.6-0.1-0.8-0.1
	c-0.2,0-0.4-0.1-0.6-0.1c-0.5,0-0.9-0.1-1.4-0.1c-0.4,0-0.8,0-1.2,0h-0.1c-5.6,0-10.9,1.3-15.9,3.8c-0.8,0.4-1.6,0.8-2.4,1.3
	c4.6-2.9,9.8-4.5,15.1-5c-9.4,0.8-18.4,5.4-24.6,13.5l-5.9,7.7l-54.7,71.9c-0.5,0.7-1,1.3-1.4,2c0,0.1-0.1,0.1-0.1,0.2
	c-0.4,0.5-0.7,1.1-1,1.6c-0.1,0.1-0.2,0.3-0.3,0.5c-0.3,0.6-0.6,1.1-0.9,1.7c-0.2,0.4-0.3,0.7-0.5,1.1c-0.1,0.3-0.2,0.5-0.3,0.8
	c-0.2,0.7-0.5,1.4-0.7,2.1c0,0,0,0.1,0,0.2c0,0,0,0,0,0c0,0.1,0,0.2-0.1,0.3c0,0.1-0.1,0.2-0.1,0.3c0,0.2-0.1,0.4-0.2,0.6
	c0,0.1,0,0.1-0.1,0.2c0,0.1,0,0.2-0.1,0.3c-0.1,0.2-0.1,0.4-0.2,0.6c0,0.1,0,0.2-0.1,0.2c0,0,0,0,0,0c0,0.1-0.1,0.2-0.1,0.3
	l-0.6,2.9c0.1,0.1,0,0.2,0,0.3v0.1c0,0.2,0,0.3-0.1,0.5c0,0.6,0,0.6-0.1,1.2c0,0.2,0,0.4-0.1,0.6c0,0-0.1,0-0.1,0.1
	c-0.7,11.1,4,22.4,13.4,29.6l9.3,7.1c15.2,11.5,36.8,8.5,48.3-6.6l60.3-79.2l0.3-0.4c4.1-5.4,6.4-11.5,6.9-17.8
	C940.7,1106.6,940.5,1103.1,939.8,1099.7z M803.7,1168.7c0.2-0.7,0.4-1.4,0.7-2.1C804.2,1167.3,803.9,1168,803.7,1168.7z
	 M804.7,1165.8c0.2-0.4,0.3-0.7,0.5-1.1C805.1,1165.1,804.9,1165.4,804.7,1165.8z M806.1,1163c0.1-0.2,0.2-0.4,0.3-0.5
	C806.3,1162.7,806.2,1162.9,806.1,1163z M807.5,1160.8c0-0.1,0.1-0.1,0.1-0.1C807.5,1160.8,807.5,1160.8,807.5,1160.8z
	 M807.5,1160.6c0.4-0.7,0.9-1.3,1.4-2C808.4,1159.3,808,1159.9,807.5,1160.6z M871.6,1076.7c1.9-2.1,3.9-3.8,6.1-5.3
	C875.5,1072.9,873.4,1074.7,871.6,1076.7z"/>
<linearGradient id="SVGID_23_" gradientUnits="userSpaceOnUse" x1="843.5" y1="33.092" x2="843.5" y2="33.092" gradientTransform="matrix(1 0 0 1 0 1074.908)">
	<stop  offset="0" style="stop-color:#A2C7E2"/>
	<stop  offset="0.51" style="stop-color:#7E7EAA"/>
	<stop  offset="1" style="stop-color:#FFFFFF"/>
</linearGradient>
<polygon class="st23" points="843.5,1108 843.5,1108 843.5,1108 "/>
<linearGradient id="SVGID_24_" gradientUnits="userSpaceOnUse" x1="1561.1211" y1="-3020.27" x2="1577.5021" y2="1778.6127">
	<stop  offset="0" style="stop-color:#A2C7E2"/>
	<stop  offset="0.23" style="stop-color:#7E7EAA"/>
	<stop  offset="0.32" style="stop-color:#0D0208"/>
	<stop  offset="0.35" style="stop-color:#10050B"/>
	<stop  offset="0.42" style="stop-color:#10050B"/>
	<stop  offset="0.48" style="stop-color:#10050B"/>
	<stop  offset="0.54" style="stop-color:#190F18"/>
	<stop  offset="0.67" style="stop-color:#322A3C"/>
	<stop  offset="0.84" style="stop-color:#595575"/>
	<stop  offset="0.87" style="stop-color:#615E81"/>
</linearGradient>
<path class="st24" d="M1159.8,760.8h-1.2c-1.2,0-2.5,0-3.7,0.1c-72.9,9-89.4,15.4-114.9,53.4c-35.7,53.2-65.5,100.5-91.2,112.3
	c0,0,14.2,35.6,58.5,35.3c16-0.1,36-4.9,60.7-17.8c49.4-25.8,63.3-48.1,88.1-48c21.8,0.1,52.1,17.7,122.5,65.8
	c150,102.5,212.6,145.9,212.8,146.1c0.5-0.1,16.4-2.8,41.4-9.5c0.1,0,0.2-0.1,0.3-0.1h0.1c86.4-33.9,167.6-79.5,241.8-135.1
	c0,0,0.2,0.1,0.1,0.1c-1-0.8-2.1-1.5-3.1-2.3c0.8,0.6,1.5,1.1,2.3,1.7l-0.3-0.3c-0.1-0.1-0.2-0.2-0.3-0.3c0,0,0,0,0,0
	c0.1,0.1,0.2,0.2,0.3,0.2l0.1,0.1c0.3,0.2,0.6,0.4,0.9,0.6c0,0,0,0,0,0c0,0,0,0,0,0v0c0,0,0,0,0,0.1l4.7-3.6l0,0
	c253.7-192.1,417.9-499.1,417.9-845c0-1.2,0-2.3,0-3.4h-410c0,2.2,0,4.4,0,6.6c0,292-211.2,545.1-479.2,623.5
	c0.2,0.1,0.4,0.2,0.6,0.2c-10.6,1.5-22.4,3.1-35.3,4.8c-50.8,6.6-88.8,10.6-117.8,14.3c-0.4,0-0.8,0.1-1.2,0.1
	c1.2-0.1,2.5-0.1,3.7-0.1h1.2"/>
<linearGradient id="SVGID_25_" gradientUnits="userSpaceOnUse" x1="1509.1459" y1="649.7999" x2="1509.1459" y2="649.7999">
	<stop  offset="0" style="stop-color:#A2C7E2"/>
	<stop  offset="0.23" style="stop-color:#7E7EAA"/>
	<stop  offset="0.32" style="stop-color:#0D0208"/>
	<stop  offset="0.35" style="stop-color:#10050B"/>
	<stop  offset="0.42" style="stop-color:#10050B"/>
	<stop  offset="0.48" style="stop-color:#10050B"/>
	<stop  offset="0.54" style="stop-color:#190F18"/>
	<stop  offset="0.67" style="stop-color:#322A3C"/>
	<stop  offset="0.84" style="stop-color:#595575"/>
	<stop  offset="0.87" style="stop-color:#615E81"/>
</linearGradient>
<path class="st25" d="M1509.1,649.8"/>
<linearGradient id="SVGID_26_" gradientUnits="userSpaceOnUse" x1="2199.02" y1="1799.145" x2="2199.29" y2="1799.145">
	<stop  offset="0" style="stop-color:#A2C7E2"/>
	<stop  offset="0.51" style="stop-color:#7E7EAA"/>
	<stop  offset="1" style="stop-color:#A2C7E2"/>
</linearGradient>
<path class="st26" d="M2199.3,1804.9h-0.3c0.1-3.8,0.1-7.7,0.2-11.5C2199.3,1797.2,2199.3,1801.1,2199.3,1804.9z"/>
</svg>
