<?xml version="1.0" encoding="utf-8"?>
<!-- Generator: Adobe Illustrator 22.1.0, SVG Export Plug-In . SVG Version: 6.00 Build 0)  -->
<svg version="1.1" id="Layer_1" xmlns="http://www.w3.org/2000/svg" xmlns:xlink="http://www.w3.org/1999/xlink" x="0px" y="0px"
	 viewBox="0 0 2306.4 1918.3" style="enable-background:new 0 0 2306.4 1918.3;" xml:space="preserve">
<style type="text/css">
	.st0{opacity:0.53;fill:#7E7EAA;}
	.st1{fill:#7E7EAA;}
	.st2{opacity:0.51;fill:#7E7EAA;enable-background:new    ;}
</style>
<path class="st0" d="M1000.9,745.3c0.8-0.3,1.6-0.6,2.3-0.8c-0.1,0-0.2-0.1-0.3-0.1h0.1h-0.1C735,665.7,524,412.2,524,119.8
	c0-2.2,0-4.4,0-6.6H114c0,1.1,0,2.2,0,3.4c0,348.5,156.4,650.3,412.7,842.5l0,0"/>
<title>Asset 1</title>
<path class="st1" d="M807.7,1205.7c0.3,0.3,0.6,0.6,0.9,0.9C808.3,1206.3,808,1206,807.7,1205.7L807.7,1205.7z"/>
<path class="st1" d="M931.6,1113.7c0-0.1,0-0.3,0-0.4s0-0.2,0-0.3c-0.1-0.8-0.1-1.5-0.3-2.3c0-0.3-0.1-0.5-0.1-0.8
	c-0.1-0.4-0.1-0.7-0.2-1.1c-0.1-0.3-0.1-0.6-0.2-0.9c0-0.1,0-0.2-0.1-0.3c-0.1-0.4-0.2-0.8-0.3-1.2v-0.1c-0.1-0.3-0.2-0.7-0.3-1
	c-0.2-0.6-0.4-1.1-0.6-1.7c-0.1-0.3-0.2-0.6-0.4-0.9c-0.1-0.3-0.2-0.6-0.4-0.9c-0.1-0.3-0.3-0.6-0.4-0.9v-0.1l0,0
	c-0.1-0.2-0.2-0.3-0.3-0.5s-0.2-0.4-0.3-0.7c-0.1-0.2-0.2-0.3-0.3-0.5c0,0,0,0,0-0.1c-0.2-0.3-0.4-0.6-0.6-0.9
	c-0.1-0.2-0.3-0.4-0.4-0.7l0,0c-0.2-0.2-0.3-0.5-0.5-0.8c-0.9-1.4-1.9-2.7-3-3.9c-0.2-0.2-0.4-0.4-0.6-0.6c-0.2-0.2-0.4-0.4-0.6-0.6
	c-0.3-0.3-0.6-0.6-0.9-0.9c-0.7-0.7-1.5-1.3-2.4-2l-8.1-6.2c-0.4-0.3-0.8-0.6-1.2-0.8c-0.6-0.4-1.2-0.8-1.8-1.2
	c-0.4-0.2-0.7-0.4-1.1-0.6c-0.5-0.3-0.9-0.5-1.4-0.7c-1.1-0.5-2.2-1-3.3-1.5c-0.4-0.2-0.8-0.3-1.1-0.4c-0.4-0.1-0.9-0.3-1.3-0.4
	c-0.4-0.1-0.9-0.2-1.3-0.4l0,0c-0.4-0.1-0.9-0.2-1.3-0.3c-0.4-0.1-0.8-0.2-1.2-0.2c-0.1,0-0.2,0-0.3,0c0.3,0,0.6,0.1,0.9,0.2
	c0.2,0,0.4,0.1,0.6,0.1l0,0c0.5,0.1,0.9,0.2,1.3,0.3c0.4,0.1,0.9,0.2,1.3,0.4c0.4,0.1,0.9,0.3,1.3,0.4c0.4,0.2,0.9,0.3,1.3,0.5
	c0.4,0.1,0.7,0.3,1.1,0.5c0.3,0.1,0.6,0.3,1,0.4c2.2,1,4.4,2.3,6.4,3.9l6.3,4.8l1.8,1.4c0.8,0.6,1.6,1.3,2.3,1.9
	c0.8,0.7,1.5,1.4,2.2,2.2c0.4,0.5,0.8,1,1.2,1.4c5.7,7,8.4,16.1,7.4,25c-0.1,0.5-0.1,1-0.2,1.4v0.3v-0.1l0,0c0-0.1,0-0.2,0.1-0.4
	v0.1c0-0.1,0-0.2,0-0.3c0-0.2,0.1-0.3,0.1-0.5c0,0,0,0,0-0.1s0-0.2,0.1-0.3c0-0.1,0-0.1,0-0.2c0-0.3,0-0.6,0.1-0.9l0,0
	c0-0.3,0-0.6,0.1-0.9v-0.4c0-0.1,0-0.3,0-0.4v-0.2c0-0.4,0-0.8,0-1.2v-0.3C931.7,1114.3,931.6,1114,931.6,1113.7z M931.6,1113.7
	c0-0.1,0-0.3,0-0.4s0-0.2,0-0.3c-0.1-0.8-0.1-1.5-0.3-2.3c0-0.3-0.1-0.5-0.1-0.8c-0.1-0.4-0.1-0.7-0.2-1.1c-0.1-0.3-0.1-0.6-0.2-0.9
	c0-0.1,0-0.2-0.1-0.3c-0.1-0.4-0.2-0.8-0.3-1.2v-0.1c-0.1-0.3-0.2-0.7-0.3-1c-0.2-0.6-0.4-1.1-0.6-1.7c-0.1-0.3-0.2-0.6-0.4-0.9
	c-0.1-0.3-0.2-0.6-0.4-0.9c-0.1-0.3-0.3-0.6-0.4-0.9v-0.1l0,0c-0.1-0.2-0.2-0.3-0.3-0.5s-0.2-0.4-0.3-0.7c-0.1-0.2-0.2-0.3-0.3-0.5
	c0,0,0,0,0-0.1c-0.2-0.3-0.4-0.6-0.6-0.9c-0.1-0.2-0.3-0.4-0.4-0.7l0,0c-0.2-0.2-0.3-0.5-0.5-0.8c-0.9-1.4-1.9-2.7-3-3.9
	c-0.2-0.2-0.4-0.4-0.6-0.6c-0.2-0.2-0.4-0.4-0.6-0.6c-0.3-0.3-0.6-0.6-0.9-0.9c-0.7-0.7-1.5-1.3-2.4-2l-8.1-6.2
	c-0.4-0.3-0.8-0.6-1.2-0.8c-0.6-0.4-1.2-0.8-1.8-1.2c-0.4-0.2-0.7-0.4-1.1-0.6c-0.5-0.3-0.9-0.5-1.4-0.7c-1.1-0.5-2.2-1-3.3-1.5
	c-0.4-0.2-0.8-0.3-1.1-0.4c-0.4-0.1-0.9-0.3-1.3-0.4c-0.4-0.1-0.9-0.2-1.3-0.4l0,0c-0.4-0.1-0.9-0.2-1.3-0.3
	c-0.4-0.1-0.8-0.2-1.2-0.2c-0.1,0-0.2,0-0.3,0c0.3,0,0.6,0.1,0.9,0.2c0.2,0,0.4,0.1,0.6,0.1l0,0c0.5,0.1,0.9,0.2,1.3,0.3
	c0.4,0.1,0.9,0.2,1.3,0.4c0.4,0.1,0.9,0.3,1.3,0.4c0.4,0.2,0.9,0.3,1.3,0.5c0.4,0.1,0.7,0.3,1.1,0.5c0.3,0.1,0.6,0.3,1,0.4
	c2.2,1,4.4,2.3,6.4,3.9l6.3,4.8l1.8,1.4c0.8,0.6,1.6,1.3,2.3,1.9c0.8,0.7,1.5,1.4,2.2,2.2c0.4,0.5,0.8,1,1.2,1.4
	c5.7,7,8.4,16.1,7.4,25c-0.1,0.5-0.1,1-0.2,1.4v0.3v-0.1l0,0c0-0.1,0-0.2,0.1-0.4v0.1c0-0.1,0-0.2,0-0.3c0-0.2,0.1-0.3,0.1-0.5
	c0,0,0,0,0-0.1s0-0.2,0.1-0.3c0-0.1,0-0.1,0-0.2c0-0.3,0-0.6,0.1-0.9l0,0c0-0.3,0-0.6,0.1-0.9v-0.4c0-0.1,0-0.3,0-0.4v-0.2
	c0-0.4,0-0.8,0-1.2v-0.3C931.7,1114.3,931.6,1114,931.6,1113.7z M931.1,1121.4L931.1,1121.4L931.1,1121.4c0-0.2,0-0.3,0-0.4v-0.1
	C931.2,1121.1,931.1,1121.3,931.1,1121.4L931.1,1121.4z M931.1,1121.4L931.1,1121.4L931.1,1121.4
	C931.1,1121.5,931.1,1121.4,931.1,1121.4z M931.1,1121.4L931.1,1121.4L931.1,1121.4L931.1,1121.4c0-0.2,0-0.3,0-0.4v-0.1
	C931.2,1121.1,931.1,1121.3,931.1,1121.4z M931.1,1121.4L931.1,1121.4L931.1,1121.4C931.1,1121.5,931.1,1121.4,931.1,1121.4z
	 M931.6,1113.7c0-0.1,0-0.3,0-0.4s0-0.2,0-0.3c-0.1-0.8-0.1-1.5-0.3-2.3c0-0.3-0.1-0.5-0.1-0.8c-0.1-0.4-0.1-0.7-0.2-1.1
	c-0.1-0.3-0.1-0.6-0.2-0.9c0-0.1,0-0.2-0.1-0.3c-0.1-0.4-0.2-0.8-0.3-1.2v-0.1c-0.1-0.3-0.2-0.7-0.3-1c-0.2-0.6-0.4-1.1-0.6-1.7
	c-0.1-0.3-0.2-0.6-0.4-0.9c-0.1-0.3-0.2-0.6-0.4-0.9c-0.1-0.3-0.3-0.6-0.4-0.9v-0.1l0,0c-0.1-0.2-0.2-0.3-0.3-0.5s-0.2-0.4-0.3-0.7
	c-0.1-0.2-0.2-0.3-0.3-0.5c0,0,0,0,0-0.1c-0.2-0.3-0.4-0.6-0.6-0.9c-0.1-0.2-0.3-0.4-0.4-0.7l0,0c-0.2-0.2-0.3-0.5-0.5-0.8
	c-0.9-1.4-1.9-2.7-3-3.9c-0.2-0.2-0.4-0.4-0.6-0.6c-0.2-0.2-0.4-0.4-0.6-0.6c-0.3-0.3-0.6-0.6-0.9-0.9c-0.7-0.7-1.5-1.3-2.4-2
	l-8.1-6.2c-0.4-0.3-0.8-0.6-1.2-0.8c-0.6-0.4-1.2-0.8-1.8-1.2c-0.4-0.2-0.7-0.4-1.1-0.6c-0.8-0.4-1.6-0.9-2.5-1.2
	c2.2,1,4.4,2.3,6.4,3.9l6.3,4.8l1.8,1.4c0.8,0.6,1.6,1.3,2.3,1.9c0.8,0.7,1.5,1.4,2.2,2.2c0.4,0.5,0.8,1,1.2,1.4
	c5.7,7,8.4,16.1,7.4,25c-0.1,0.5-0.1,1-0.2,1.4v0.3v-0.1l0,0c0-0.1,0-0.2,0.1-0.4v0.1c0-0.1,0-0.2,0-0.3c0-0.2,0.1-0.3,0.1-0.5
	c0,0,0,0,0-0.1s0-0.2,0.1-0.3c0-0.1,0-0.1,0-0.2c0-0.3,0-0.6,0.1-0.9l0,0c0-0.3,0-0.6,0.1-0.9v-0.4c0-0.1,0-0.3,0-0.4v-0.2
	c0-0.4,0-0.8,0-1.2v-0.3C931.7,1114.3,931.6,1114,931.6,1113.7z"/>
<path class="st2" d="M537.2,949.7c-0.2,0.2-0.4,0.3-0.6,0.5l0,0L537.2,949.7z"/>
<path class="st2" d="M537.2,949.7c-0.2,0.2-0.4,0.3-0.6,0.5l0,0L537.2,949.7z"/>
<path class="st2" d="M537.6,949.4"/>
<path class="st2" d="M537.6,949.4"/>
<path class="st1" d="M1769.8,950.2L1769.8,950.2L1769.8,950.2L1769.8,950.2L1769.8,950.2L1769.8,950.2L1769.8,950.2z"/>
<path class="st1" d="M1769.8,950.2L1769.8,950.2L1769.8,950.2L1769.8,950.2L1769.8,950.2L1769.8,950.2L1769.8,950.2z"/>
<path class="st1" d="M1769.8,950.2L1769.8,950.2L1769.8,950.2L1769.8,950.2L1769.8,950.2L1769.8,950.2L1769.8,950.2z"/>
<path class="st1" d="M1769.8,950.2L1769.8,950.2L1769.8,950.2L1769.8,950.2L1769.8,950.2z"/>
<path class="st1" d="M1769.8,950.2L1769.8,950.2L1769.8,950.2L1769.8,950.2L1769.8,950.2z"/>
<path class="st1" d="M1769.8,950.2L1769.8,950.2L1769.8,950.2L1769.8,950.2L1769.8,950.2z"/>
<path class="st1" d="M1769.8,950.2L1769.8,950.2L1769.8,950.2L1769.8,950.2L1769.8,950.2z"/>
<path class="st1" d="M1769.8,950.2L1769.8,950.2L1769.8,950.2L1769.8,950.2L1769.8,950.2z"/>
<path class="st1" d="M1062.6,930.9"/>
<path class="st0" d="M1153.4,1240.2L1153.4,1240.2c-12.3-9.4-29.9-7-39.3,5.3l-37.2,48.9c-9.4,12.3-7,29.9,5.3,39.3l0,0
	c12.3,9.4,29.9,7,39.3-5.3l37.2-48.9C1168.1,1267.2,1165.7,1249.6,1153.4,1240.2z"/>
<path class="st0" d="M1092,1173.5L1092,1173.5c-16.1-12.2-39-9.1-51.3,6.9l-48.6,63.8c-12.2,16.1-9.1,39,6.9,51.3l0,0
	c16.1,12.2,39,9.1,51.3-6.9l48.6-63.8C1111.2,1208.7,1108.1,1185.8,1092,1173.5z"/>
<path class="st0" d="M1026.5,1135.6L1026.5,1135.6c-1.7-7.8-6-15-12.8-20.3l-9.4-7.1c-0.4-0.3-0.8-0.6-1.2-0.9
	c-4-2.8-8.3-4.6-12.8-5.6l0,0c-0.4-0.1-0.9-0.2-1.3-0.3h-0.1c-0.4-0.1-0.8-0.1-1.3-0.2c-0.3,0-0.6-0.1-0.9-0.1
	c-0.2,0-0.4-0.1-0.6-0.1c-0.5,0-0.9-0.1-1.4-0.1c-0.4,0-0.8,0-1.3,0h-0.1c-5.6,0-11,1.3-16,3.8c-0.8,0.4-1.6,0.8-2.4,1.3
	c4.7-2.9,9.9-4.6,15.3-5c-9.5,0.8-18.6,5.4-24.9,13.6l-5.9,7.8l-55.1,72.5c-0.5,0.7-1,1.3-1.4,2c0,0.1-0.1,0.1-0.1,0.2
	c-0.4,0.5-0.7,1.1-1,1.6c-0.1,0.1-0.2,0.3-0.3,0.5c-0.3,0.6-0.6,1.1-0.9,1.7c-0.2,0.4-0.3,0.7-0.5,1.1c-0.1,0.3-0.2,0.5-0.3,0.8
	c-0.2,0.7-0.5,1.4-0.7,2.1c0,0.1,0,0.1,0,0.2l0,0c0,0.1,0,0.2-0.1,0.3c0,0.1-0.1,0.2-0.1,0.3c-0.1,0.2-0.1,0.4-0.2,0.6
	c0,0.1,0,0.2-0.1,0.2c0,0.1-0.1,0.2-0.1,0.3c-0.1,0.2-0.1,0.4-0.2,0.6c0,0.1,0,0.2-0.1,0.2l0,0c0,0.1-0.1,0.2-0.1,0.3l-0.6,3
	c0.1,0.1,0,0.2,0,0.3v0.1c0,0.2,0,0.3-0.1,0.5c0,0.6,0,0.6-0.1,1.2c0,0.2,0,0.4-0.1,0.6c0,0-0.1,0-0.1,0.1
	c-0.7,11.1,4,22.6,13.5,29.9l9.4,7.2c15.3,11.6,37.1,8.6,48.7-6.7l60.8-79.8l0.3-0.4c4.1-5.4,6.5-11.6,7-17.9
	C1027.4,1142.6,1027.2,1139,1026.5,1135.6z M889.3,1205.2c0.2-0.7,0.4-1.4,0.7-2.1C889.8,1203.8,889.5,1204.5,889.3,1205.2z
	 M890.3,1202.3c0.2-0.4,0.3-0.7,0.5-1.1C890.7,1201.6,890.5,1201.9,890.3,1202.3z M891.7,1199.4c0.1-0.2,0.2-0.4,0.3-0.5
	C891.9,1199.1,891.8,1199.3,891.7,1199.4z M893,1197.3C893,1197.2,893.1,1197.2,893,1197.3C893.1,1197.2,893.1,1197.2,893,1197.3z
	 M893.1,1197c0.4-0.7,0.9-1.3,1.4-2C894,1195.7,893.6,1196.3,893.1,1197z M957.6,1112.4c1.9-2.1,3.9-3.9,6.2-5.3
	C961.6,1108.6,959.5,1110.4,957.6,1112.4z"/>
<path class="st0" d="M934.6,1104L934.6,1104c-1.6-7.6-5.8-14.5-12.4-19.6l-9.1-6.8c-0.4-0.3-0.8-0.6-1.1-0.8
	c-3.9-2.7-8.1-4.5-12.3-5.4l0,0c-0.4-0.1-0.8-0.2-1.3-0.2c0,0,0,0-0.1,0c-0.4-0.1-0.8-0.1-1.2-0.2c-0.3,0-0.6-0.1-0.8-0.1
	s-0.4,0-0.5-0.1c-0.4,0-0.9-0.1-1.3-0.1c-0.4,0-0.8,0-1.2,0h-0.1c-5.4,0-10.7,1.3-15.5,3.7c-0.8,0.4-1.6,0.8-2.3,1.3
	c4.5-2.8,9.6-4.4,14.8-4.9c-9.2,0.7-18,5.2-24,13.1l-5.8,7.5l-53.3,70.1c-0.5,0.7-1,1.3-1.4,2c0,0.1-0.1,0.1-0.1,0.2
	c-0.4,0.5-0.7,1.1-1,1.6c-0.1,0.1-0.2,0.3-0.3,0.5c-0.3,0.6-0.6,1.1-0.9,1.7c-0.2,0.4-0.3,0.7-0.5,1.1c-0.1,0.3-0.2,0.5-0.3,0.8
	c-0.2,0.7-0.5,1.4-0.7,2v0.1l0,0c0,0.1,0,0.2-0.1,0.3c0,0.1-0.1,0.2-0.1,0.3c0,0.2-0.1,0.4-0.2,0.6c0,0.1,0,0.1-0.1,0.2
	c0,0.1,0,0.2-0.1,0.3c0,0.2-0.1,0.4-0.2,0.6c0,0.1,0,0.1-0.1,0.2l0,0c0,0.1-0.1,0.2-0.1,0.3l-0.6,2.9c0.1,0.1,0,0.2,0,0.3v0.1
	c0,0.2,0,0.3-0.1,0.5c0,0.6,0,0.6-0.1,1.2c0,0.2,0,0.4-0.1,0.6c0,0-0.1,0-0.1,0.1c-0.7,10.8,3.9,21.8,13.1,28.9l9.1,6.9
	c14.8,11.2,35.9,8.3,47.1-6.4l58.8-77.2l0.3-0.4c4-5.3,6.2-11.2,6.7-17.4C935.5,1110.7,935.3,1107.3,934.6,1104z M801.9,1171.3
	c0.2-0.7,0.4-1.4,0.7-2C802.4,1169.9,802.1,1170.6,801.9,1171.3z M802.9,1168.5c0.2-0.4,0.3-0.7,0.5-1.1
	C803.2,1167.8,803,1168.1,802.9,1168.5z M804.2,1165.7c0.1-0.2,0.2-0.4,0.3-0.5C804.4,1165.4,804.3,1165.6,804.2,1165.7z
	 M805.5,1163.6C805.5,1163.5,805.6,1163.5,805.5,1163.6C805.6,1163.6,805.5,1163.6,805.5,1163.6z M805.6,1163.4
	c0.4-0.7,0.9-1.3,1.4-2C806.5,1162.1,806.1,1162.7,805.6,1163.4z M868,1081.6c1.8-2,3.8-3.7,6-5.1
	C871.8,1077.9,869.8,1079.6,868,1081.6z"/>
<path class="st1" d="M803.7,1168.7c0.2-0.7,0.4-1.4,0.7-2.1C804.2,1167.3,803.9,1168,803.7,1168.7z M804.7,1165.8
	c0.2-0.4,0.3-0.7,0.5-1.1C805.1,1165.1,804.9,1165.4,804.7,1165.8z M806.1,1163c0.1-0.2,0.2-0.4,0.3-0.5
	C806.3,1162.7,806.2,1162.9,806.1,1163z M807.5,1160.8C807.5,1160.7,807.6,1160.7,807.5,1160.8
	C807.5,1160.8,807.5,1160.8,807.5,1160.8z M807.5,1160.6c0.4-0.7,0.9-1.3,1.4-2C808.4,1159.3,808,1159.9,807.5,1160.6z"/>
<path class="st1" d="M843.5,1108L843.5,1108L843.5,1108z"/>
<path class="st0" d="M1159.8,751.2h-1.2c-1.2,0-2.5,0-3.7,0.1c-72.9,9-89.4,15.4-114.9,53.4c-35.7,53.2-65.5,100.5-91.2,112.3
	c0,0,14.2,35.6,58.5,35.3c16-0.1,36-4.9,60.7-17.8c49.4-25.8,63.3-48.1,88.1-48c21.8,0.1,52.1,17.7,122.5,65.8
	c150,102.5,212.6,145.9,212.8,146.1c0.5-0.1,16.4-2.8,41.4-9.5c0.1,0,0.2-0.1,0.3-0.1h0.1c86.4-33.9,167.6-79.5,241.8-135.1
	c0,0,0.2,0.1,0.1,0.1c-1-0.8-2.1-1.5-3.1-2.3c0.8,0.6,1.5,1.1,2.3,1.7l-0.3-0.3c-0.1-0.1-0.2-0.2-0.3-0.3l0,0
	c0.1,0.1,0.2,0.2,0.3,0.2l0.1,0.1c0.3,0.2,0.6,0.4,0.9,0.6l0,0l0,0l0,0c0,0,0,0,0,0.1l4.7-3.6l0,0
	c253.7-192.1,417.9-499.1,417.9-845c0-1.2,0-2.3,0-3.4h-410c0,2.2,0,4.4,0,6.6c0,292-211.2,545.1-479.2,623.5
	c0.2,0.1,0.4,0.2,0.6,0.2c-10.6,1.5-22.4,3.1-35.3,4.8c-50.8,6.6-88.8,10.6-117.8,14.3c-0.4,0-0.8,0.1-1.2,0.1
	c1.2-0.1,2.5-0.1,3.7-0.1h1.2"/>
<path class="st1" d="M1509.1,649.8"/>
<path class="st1" d="M2199.3,1804.9h-0.3c0.1-3.8,0.1-7.7,0.2-11.5C2199.3,1797.2,2199.3,1801.1,2199.3,1804.9z"/>
<g>
	<path class="st1" d="M1775,953.6L1775,953.6L1775,953.6L1775,953.6c-0.3-0.2-0.6-0.4-0.9-0.6l-0.1-0.1l0.3,0.3
		c-0.8-0.6-1.5-1.1-2.3-1.7c1,0.7,2,1.5,3,2.2C1775,953.7,1775,953.7,1775,953.6L1775,953.6z"/>
	<path class="st1" d="M1780.3,949.6c-0.2,0.2-0.4,0.3-0.7,0.5l0,0l-4.7,3.6c0,0,0.2,0.1,0.1,0.1l-0.1-0.1
		c-74.2,55.6-155.4,101.2-241.8,135.1h-0.1c-0.1,0-0.2,0.1-0.3,0.1c-25,6.7-40.9,9.4-41.4,9.5c-0.2-0.2-62.8-43.6-212.8-146.1
		c-70.4-48.1-100.7-65.7-122.5-65.8c-24.8-0.1-38.7,22.2-88.1,48c-24.7,12.9-44.7,17.7-60.7,17.8c-44.3,0.3-58.5-35.3-58.5-35.3
		c25.7-11.8,55.5-59.1,91.2-112.3c25.5-38,42-44.4,114.9-53.4c1.2-0.1,2.5-0.1,3.7-0.1h1.2l-0.2-0.1h-1.2c-1.2,0-2.5,0-3.7,0.1
		c0.4,0,0.8-0.1,1.2-0.1c27.7-3.5,63.5-7.3,110.9-13.4c-34.8-3.8-70.1-5.7-105.9-5.7c-230,0-442.7,80.6-615,214.2l-2.2,0.7
		c0,0,0,0.1-0.1,0.1c-128.1,94.5-233.7,217.7-307.3,360.2S121,1611.4,121,1782.8c0,12.6,0.2,25.2,0.7,37.7h409.7v-0.1
		c-0.1-5.1-0.3-10.2-0.3-15.3c0-2.1,0-4.2,0-6.4c0-252.7,145.1-471.4,356.6-577.5c0,0,0.1,0,0.1-0.1c0-0.2,0-0.4,0.1-0.6
		c0-0.6,0-0.6,0.1-1.2c0-0.2,0-0.3,0.1-0.5v-0.3v-0.1l0.6-2.9c0-0.1,0-0.2,0.1-0.3l0,0c0-0.1,0-0.2,0.1-0.2c0.1-0.2,0.1-0.4,0.2-0.6
		c0-0.1,0-0.2,0.1-0.3c0-0.1,0-0.2,0.1-0.2c0.1-0.2,0.1-0.4,0.2-0.6c0-0.1,0.1-0.2,0.1-0.3c0-0.1,0.1-0.2,0.1-0.3l0,0v-0.1
		c0.2-0.7,0.5-1.4,0.7-2c0.1-0.3,0.2-0.6,0.3-0.9c0.2-0.4,0.3-0.7,0.5-1.1c0.3-0.6,0.6-1.1,0.9-1.7c0.1-0.2,0.2-0.4,0.3-0.5
		c0.3-0.5,0.6-1.1,1-1.6c0-0.1,0.1-0.1,0.1-0.2c0.4-0.7,0.9-1.3,1.4-2l54.7-71.9l5.9-7.7c6.2-8.1,15.2-12.7,24.7-13.5
		c0.2,0,0.4,0,0.6,0c0.8-0.1,1.6-0.1,2.4-0.1h0.3c0.4,0,0.8,0,1.2,0s0.9,0.1,1.3,0.1c0.2,0,0.4,0,0.6,0.1c0.3,0,0.6,0.1,0.8,0.1
		c0.4,0.1,0.8,0.1,1.2,0.2h0.1h0.2c0.4,0.1,0.8,0.1,1.1,0.2l0,0c4.9,1,9.6,3,13.8,6.3l9.3,7c0.5,0.3,0.9,0.7,1.3,1.1
		c0.3,0.3,0.7,0.6,1,0.9s0.7,0.6,1,0.9c4.7,4.7,8.1,10.7,9.5,17.3l0,0h-0.1c0.7,3.4,0.9,6.9,0.6,10.3c0.1,0.6-0.2,1.3-0.1,1.9
		l16.7,6.4c0,0,26.1-20.2,54.9-4.8c1.2,0.7,2.5,1.3,3.7,2.2c36.5,26.2,14.9,61.5,14.9,61.5l5.6,3.5c0,0,0,0,0.1,0
		c0.2-0.1,0.5-0.3,1-0.6c0.1-0.1,0.2-0.1,0.4-0.2c0,0,0.1,0,0.1-0.1c0.2-0.1,0.4-0.2,0.6-0.3c0.3-0.2,0.7-0.3,1.1-0.5
		s0.8-0.3,1.2-0.5c0.2-0.1,0.4-0.2,0.6-0.3l0,0c0.2-0.1,0.5-0.2,0.7-0.3c0.3-0.1,0.6-0.2,0.9-0.3c0.2-0.1,0.4-0.1,0.6-0.2
		c0.5-0.2,1.1-0.3,1.6-0.5c0.4-0.1,0.9-0.2,1.3-0.4c0.1,0,0.3-0.1,0.5-0.1c0.3-0.1,0.6-0.1,0.9-0.2l0,0c0.3-0.1,0.7-0.1,1-0.2
		s0.7-0.1,1-0.2s0.7-0.1,1-0.2c0.4,0,0.7-0.1,1.1-0.2c0.3,0,0.6-0.1,0.9-0.1c0.5,0,1-0.1,1.5-0.1s1-0.1,1.5-0.1h0.2c0.5,0,1,0,1.6,0
		c0.3,0,0.6,0,0.9,0s0.6,0,0.9,0c0.5,0,0.9,0,1.4,0.1c0.1,0,0.3,0,0.4,0c0.6,0,1.1,0.1,1.7,0.2s1.2,0.1,1.8,0.2
		c0.3,0,0.5,0.1,0.8,0.1c2,0.3,4,0.8,6.1,1.4c1.3,0.4,2.6,0.8,4,1.3c0.7,0.3,1.4,0.5,2.1,0.8c0.4,0.2,0.7,0.3,1.1,0.5
		c0.5,0.2,1,0.4,1.5,0.7c0.8,0.4,2.2,1,1.9,0.9c-1.2-0.6,2.6,1.1,3.7,2c34,28.1-21,98-21,98s0.1,0.1,0.2,0.3l0.1,0.1l0.1,0.1
		c0.1,0.1,0.1,0.1,0.2,0.2s0.2,0.2,0.4,0.4c0.1,0.1,0.1,0.1,0.2,0.2l0.2,0.2c0.1,0.1,0.2,0.2,0.3,0.3c0.1,0.1,0.2,0.2,0.3,0.3
		c0.2,0.2,0.4,0.4,0.7,0.6l0,0c0.2,0.2,0.3,0.3,0.5,0.5s0.4,0.3,0.6,0.5s0.4,0.4,0.6,0.5c5.1,4.4,15,11.6,31.6,19.1
		c1.5,0.7,3.1,1.4,4.7,2.1c0.5,0.2,1.1,0.5,1.7,0.7c0.4,0.2,0.9,0.4,1.3,0.5c0.5,0.2,0.9,0.4,1.4,0.6c0.6,0.2,1.2,0.5,1.8,0.7
		c0.2,0.1,0.4,0.2,0.6,0.2l0,0c1.2,0.5,2.4,0.9,3.6,1.4s2.5,0.9,3.8,1.4c0.5,0.2,1.1,0.4,1.6,0.5c1.6,0.5,3.1,1,4.6,1.4
		c1,0.3,2,0.5,2.9,0.7c1.4,0.3,2.8,0.6,4.1,0.8c0.4,0.1,0.9,0.1,1.3,0.2c0.9,0.1,1.7,0.2,2.5,0.3c3.3,0.3,6.2,0.3,9,0
		c1-0.1,2-0.2,2.9-0.4c0.4-0.1,0.8-0.2,1.2-0.2c0.4-0.1,0.8-0.2,1.3-0.3c2.1-0.5,3.9-1.2,5.6-2c7.4-3.4,11.3-8.8,13.1-12
		c0.1-0.1,0.2-0.3,0.2-0.4c0.1-0.2,0.2-0.4,0.3-0.5c0.1-0.2,0.2-0.3,0.2-0.5c0.1-0.1,0.1-0.3,0.2-0.4c0-0.1,0.1-0.2,0.1-0.3
		c0-0.1,0-0.1,0.1-0.1c0-0.1,0.1-0.2,0.1-0.2v-0.1c0.1-0.1,0.2-0.2,0.3-0.3c0.2-0.1,0.4-0.1,0.6,0.2c0.1,0.1,0.3,0,0.5,0
		c0.1,0,0.2,0,0.3,0c0.2,0,0.4,0,0.7,0c0.7,0,1.7,0,2.7,0c16.3,0.3,41.3,9.1,76.8-10.6c0.5-0.3,1.7-1.2,2.2-1.3
		c0.5-0.1,1-0.3,1.4-0.5s0.8-0.3,1.2-0.5c1.2-0.5,2.3-1.1,3.3-1.8c13.4-9.2,17-27.9,15.9-40.7c0-0.3-0.1-0.5-0.1-0.8
		c0-0.5-0.1-0.9-0.1-1.3c-0.1-0.5-0.1-0.9-0.1-1.3c0-0.2,0-0.4-0.1-0.6c0-0.2-0.1-0.4-0.1-0.6s-0.1-0.4-0.1-0.6
		c-0.1-0.6-0.1-1.1-0.2-1.6l0,0c0-0.3-0.1-0.5-0.1-0.7c0-0.1,0-0.2,0-0.3c0-0.2-0.1-0.3-0.1-0.4s0-0.2,0-0.3s0-0.1,0-0.1
		c4.1,0.3,18.1,1.6,21.9,1.5c0.6,0,1.2,0,1.8-0.1c1.3-0.1,2.5-0.1,3.8-0.2c1.1-0.1,2.3-0.2,3.4-0.4c0.2,0,0.4,0,0.6-0.1
		c0.5-0.1,1-0.2,1.6-0.2c0.6-0.1,1.2-0.2,1.8-0.3c1.1-0.2,2.2-0.5,3.2-0.8c1.6-0.4,3.2-0.9,4.8-1.5c5.8-2.1,11.3-5.4,16.7-10.2
		c0.4-0.3,0.8-0.7,1.2-1.1c1.3-1.2,2.5-2.9,3.6-4.8c0.2-0.4,0.5-0.9,0.7-1.3l0,0c0.2-0.5,0.4-0.9,0.7-1.4c0.3-0.7,0.6-1.5,0.9-2.3
		c0.2-0.5,0.4-1.1,0.6-1.7c0.1-0.3,0.2-0.6,0.3-0.8c0.1-0.3,0.2-0.6,0.3-0.9c0.2-0.6,0.4-1.2,0.5-1.8c0.2-0.6,0.3-1.2,0.5-1.8
		c0-0.2,0.1-0.3,0.1-0.5c0.1-0.4,0.2-0.8,0.3-1.2c0.1-0.4,0.2-0.8,0.3-1.2l0,0c0.2-0.8,0.4-1.6,0.6-2.4c0.2-0.9,0.3-1.7,0.5-2.6
		s0.3-1.7,0.5-2.6c0.1-0.9,0.3-1.8,0.4-2.6c0.1-0.9,0.3-1.8,0.4-2.7c0.1-0.9,0.3-1.8,0.4-2.7l0,0c0.2-1.5,0.4-2.9,0.5-4.4
		c0.1-0.8,0.2-1.6,0.3-2.4c0.1-0.8,0.2-1.6,0.2-2.4c0.2-1.7,0.3-3.4,0.5-5.1c0.2-2.1,0.3-4.1,0.4-6.1c0.1-1,0.1-1.9,0.2-2.9
		c1.6,0.7,3.1,1.4,4.7,2.1c1.5,0.7,2.9,1.3,4.4,2c1,0.4,1.9,0.9,2.8,1.3c1.3,0.6,2.7,1.2,4,1.9c1.7,0.8,3.3,1.6,5,2.4
		c2,0.9,3.9,1.9,5.9,2.9c1.6,0.8,3.2,1.6,4.8,2.4c1.7,0.9,3.5,1.8,5.2,2.6c1.7,0.9,3.4,1.8,5.1,2.7c1.7,0.9,3.4,1.8,5.1,2.7
		c3.3,1.8,6.7,3.6,10,5.5c1.9,1.1,3.7,2.1,5.6,3.2c1.5,0.9,3.1,1.8,4.6,2.7c6.7,3.9,13.3,7.9,19.8,12c3.3,2.1,6.5,4.2,9.7,6.3
		c122.2,80.6,215.5,201.5,260.8,343.8c0.6,1.9,1.2,3.8,1.8,5.6c0.6,1.9,1.2,3.8,1.7,5.6c1.1,3.8,2.2,7.6,3.3,11.4
		c0.5,1.9,1.1,3.8,1.6,5.7c0.5,1.9,1,3.8,1.5,5.7c0.5,1.9,1,3.8,1.5,5.8c0.5,1.9,1,3.8,1.4,5.8c0.5,1.9,0.9,3.9,1.4,5.8
		c0.9,3.9,1.7,7.8,2.6,11.7c0.8,3.9,1.6,7.8,2.3,11.7c0.4,2,0.7,3.9,1.1,5.9c0.7,3.9,1.4,7.9,2,11.8c0.3,2,0.6,4,0.9,5.9
		s0.6,3.8,0.8,5.6c0.1,0.4,0.1,0.7,0.2,1.1c0.2,1.5,0.4,3,0.6,4.5c0.2,1.6,0.4,3.2,0.6,4.9c0.2,1.1,0.3,2.3,0.4,3.4
		c0.2,1.7,0.4,3.4,0.6,5.1c0.2,1.8,0.4,3.6,0.6,5.4c0.2,2,0.4,4,0.6,6.1c0.4,4,0.7,8.1,1,12.2s0.6,8.1,0.8,12.2
		c0.2,4.1,0.4,8.2,0.6,12.3c0.3,8.2,0.5,16.4,0.5,24.7c0,2.1,0,4.2,0,6.3c0,5.2-0.2,10.3-0.4,15.4h374.8c0.2-5.1,0.3-10.3,0.4-15.4
		c0.1-3.8,0.1-7.7,0.2-11.5c0.1-3.6,0.1-7.2,0.1-10.8C2199.3,1442.4,2033.3,1138.9,1780.3,949.6z M931.7,1115c0,0.4,0,0.8,0,1.2v0.2
		c0,0.1,0,0.3,0,0.4v0.4c0,0.3,0,0.6-0.1,0.9l0,0c0,0.3,0,0.6-0.1,0.9c0,0.1,0,0.1,0,0.2s0,0.2-0.1,0.3c0,0,0,0,0,0.1
		c0,0.2-0.1,0.4-0.1,0.5s0,0.2,0,0.3v-0.1c0,0.2-0.1,0.3-0.1,0.4l0,0v0.1v0.1c0,0.1,0,0.2,0,0.3l0,0v0.1l0,0l0,0l0,0c0,0,0,0,0,0.1
		s-0.1,0.3-0.1,0.4v0.1c-0.1,0.7-0.3,1.3-0.4,1.9v0.1v0.1c0,0.1,0,0.1,0,0.2c-0.1,0.3-0.1,0.6-0.2,0.9c-0.1,0.4-0.2,0.7-0.3,1.1
		c-0.1,0.2-0.1,0.3-0.2,0.5c-0.1,0.2-0.2,0.5-0.2,0.7c0,0.1-0.1,0.3-0.1,0.4s0,0.1-0.1,0.2l0,0l0,0v0.1v0.1
		c-0.1,0.2-0.2,0.5-0.3,0.7c-0.2,0.4-0.3,0.8-0.5,1.2c-0.1,0.3-0.3,0.6-0.5,0.9c-0.1,0.2-0.2,0.4-0.3,0.6c0,0.1-0.1,0.1-0.1,0.2
		c-0.1,0.1-0.1,0.2-0.2,0.3c-0.1,0.1-0.1,0.1-0.2,0.2c0,0,0,0.1-0.1,0.1c0,0.1-0.1,0.1-0.1,0.2c0,0,0,0,0,0.1c0,0,0,0.1-0.1,0.1
		c0,0,0,0,0,0.1c0,0,0,0.1-0.1,0.1c-0.1,0.1-0.2,0.3-0.2,0.4c-0.1,0.1-0.1,0.3-0.2,0.4l0,0l0,0c-0.1,0.1-0.2,0.3-0.3,0.4
		c-0.2,0.3-0.4,0.6-0.6,0.8c-0.1,0.1-0.2,0.2-0.2,0.3c-0.2,0.3-0.4,0.6-0.6,0.8l-51.8,68c-11.4,14.9-32.7,17.8-47.6,6.5l-8.1-6.2
		c-0.8-0.6-1.5-1.2-2.2-1.9l-0.1-0.1c-0.4-0.3-0.7-0.7-1-1c-0.1-0.1-0.2-0.2-0.2-0.2c-0.3-0.3-0.5-0.5-0.8-0.8s-0.6-0.6-0.8-0.9
		c-0.3-0.3-0.5-0.6-0.8-0.9s-0.5-0.7-0.8-1c-0.2-0.2-0.3-0.4-0.5-0.6c-0.3-0.4-0.6-0.8-0.8-1.2c-0.5-0.8-1-1.7-1.5-2.5
		c-2.6-5-4-10.6-3.9-16.1c0-3.5,0.6-7.1,1.8-10.5s2.8-6.7,5.1-9.7l39.8-52.2l12.1-15.9c5.8-7.5,14-12,22.7-13.1
		c0.3,0,0.6-0.1,0.8-0.1c0.1,0,0.3,0,0.4,0c0.1,0,0.1,0,0.2,0c0.1,0,0.1,0,0.2,0c0.3,0,0.5,0,0.8-0.1c1-0.1,2-0.1,3,0
		c0.1,0,0.1,0,0.2,0c0.6,0,1.1,0.1,1.7,0.1h0.1c0.3,0,0.7,0.1,1,0.1h0.2c0.3,0,0.6,0.1,0.9,0.1c0.1,0,0.2,0,0.3,0
		c0.4,0.1,0.8,0.1,1.2,0.2s0.9,0.2,1.3,0.3l0,0c0.4,0.1,0.9,0.2,1.3,0.4c0.4,0.1,0.9,0.3,1.3,0.4c0.4,0.1,0.8,0.2,1.1,0.4
		c1.6,0.6,3.2,1.3,4.7,2.2c0.4,0.2,0.7,0.4,1.1,0.6c0.6,0.4,1.2,0.8,1.8,1.2c0.4,0.3,0.8,0.6,1.2,0.8l8.1,6.2c0.8,0.6,1.6,1.3,2.4,2
		c0.3,0.3,0.6,0.6,0.9,0.9c0.2,0.2,0.4,0.4,0.6,0.6c0.2,0.2,0.4,0.4,0.6,0.6c1.1,1.2,2.1,2.5,3,3.9c0.2,0.2,0.3,0.5,0.5,0.8l0,0
		c0.1,0.2,0.3,0.4,0.4,0.7c0.2,0.3,0.4,0.6,0.6,0.9c0,0,0,0,0,0.1c0.1,0.2,0.2,0.3,0.3,0.5s0.2,0.4,0.3,0.7c0.1,0.2,0.2,0.3,0.3,0.5
		l0,0v0.1c0.1,0.3,0.3,0.6,0.4,0.9c0.1,0.3,0.3,0.6,0.4,0.9c0.1,0.3,0.2,0.6,0.4,0.9c0.2,0.6,0.4,1.1,0.6,1.7c0.1,0.3,0.2,0.7,0.3,1
		v0.1c0.1,0.4,0.2,0.8,0.3,1.2c0,0.1,0.1,0.2,0.1,0.3c0.1,0.3,0.2,0.6,0.2,0.9c0.1,0.4,0.2,0.7,0.2,1.1c0.1,0.3,0.1,0.5,0.1,0.8
		c0.1,0.8,0.2,1.5,0.3,2.3c0,0.1,0,0.2,0,0.3c0,0.2,0,0.3,0,0.4c0,0.3,0,0.7,0,1L931.7,1115L931.7,1115z M1257.2,1342.3
		c0,0,0.1-0.1,0.2-0.2C1257.3,1342.2,1257.2,1342.3,1257.2,1342.3z"/>
	<path class="st1" d="M1773.7,952.6c0.1,0.1,0.2,0.2,0.3,0.3C1773.9,952.8,1773.8,952.7,1773.7,952.6L1773.7,952.6z"/>
</g>
</svg>
