<?xml version="1.0" encoding="utf-8"?>
<!-- Generator: Adobe Illustrator 22.1.0, SVG Export Plug-In . SVG Version: 6.00 Build 0)  -->
<svg version="1.1" id="Layer_1" xmlns="http://www.w3.org/2000/svg" xmlns:xlink="http://www.w3.org/1999/xlink" x="0px" y="0px"
	 viewBox="0 0 286.1 286.1" style="enable-background:new 0 0 286.1 286.1;" xml:space="preserve">
<style type="text/css">
	.st0{fill:#7E7EAA;}
</style>
<path class="st0" d="M181.2,91.9c-1.7,1.7-2.5,3.9-2.5,6.2s0.9,4.5,2.5,6.2c10.3,10.3,16.5,24.1,16.5,38.7
	c0,14.6-6.2,28.3-16.5,38.7c-3.4,3.4-3.4,8.9,0,12.3c3.4,3.4,8.9,3.4,12.3,0c13.6-13.6,21.1-31.7,21.1-51c0-19.3-7.5-37.4-21.1-51
	C190.1,88.5,184.6,88.5,181.2,91.9z M131.4,100.1l-26.8,16.3H89.3c-9.8,0-8.8,8-8.8,17.8v17.8c0,9.8-0.9,17.8,8.8,17.8h15.1l27,16.4
	c5.9,3.6,11.7,0.7,11.7-6.5v-73C143.1,99.4,137.3,96.5,131.4,100.1z M143.1,0c-79,0-143,64-143,143c0,79,64,143,143,143
	c79,0,143-64,143-143C286.1,64,222.1,0,143.1,0z M143,271.1c-70.7,0-128-57.3-128-128S72.3,15,143,15s128,57.3,128,128
	S213.7,271.1,143,271.1z M175.3,113.1c-3.3-3.3-8.6-3.3-11.9,0c-1.6,1.6-2.5,4.4-2.5,6.7c0,2.3,0.8,3.5,2.5,5.1
	c4.7,4.7,7.6,11,7.6,17.8s-2.9,13-7.6,17.8c-3.3,3.3-3.3,8.6,0,11.9c3.3,3.3,8.6,3.3,11.9,0c7.9-7.9,12.3-18.4,12.3-29.6
	C187.6,131.6,183.2,121,175.3,113.1z"/>
</svg>
