<?xml version="1.0" encoding="utf-8"?>
<!-- Generator: Adobe Illustrator 22.1.0, SVG Export Plug-In . SVG Version: 6.00 Build 0)  -->
<svg version="1.1" id="Layer_1" xmlns="http://www.w3.org/2000/svg" xmlns:xlink="http://www.w3.org/1999/xlink" x="0px" y="0px"
	 viewBox="0 0 286.1 286.1" style="enable-background:new 0 0 286.1 286.1;" xml:space="preserve">
<style type="text/css">
	.st0{fill:#7E7EAA;}
	.st1{fill:#FFFFFF;}
</style>
<path class="st0" d="M154.8,100.1L128,116.4h-15.3c-9.8,0-8.8,8-8.8,17.8V152c0,9.8-0.9,17.8,8.8,17.8h15.1l27,16.4
	c5.9,3.6,11.7,0.7,11.7-6.5v-73C166.5,99.4,160.7,96.5,154.8,100.1z M143.1,0c-79,0-143,64-143,143s64,143,143,143s143-64,143-143
	S222.1,0,143.1,0z"/>
<path class="st1" d="M154.8,100.1L128,116.4h-15.3c-9.8,0-8.8,8-8.8,17.8V152c0,9.8-0.9,17.8,8.8,17.8h15.1l27,16.4
	c5.9,3.6,11.7,0.7,11.7-6.5v-73C166.5,99.4,160.7,96.5,154.8,100.1z"/>
</svg>
