<svg xmlns="http://www.w3.org/2000/svg" viewBox="0 0 393.5 108.5"><defs><style>.cls-1{fill:#fff;}</style></defs><title>Asset 1</title><g id="Layer_2" data-name="Layer 2"><g id="Layer_1-2" data-name="Layer 1"><path class="cls-1" d="M62.4,52.2V94.1a53.87,53.87,0,0,1-19.1,3.5,43.47,43.47,0,0,1-16.4-3.1,44.87,44.87,0,0,1-13.8-8.7A40.42,40.42,0,0,1,3.6,72,43.9,43.9,0,0,1,0,54.2,42.63,42.63,0,0,1,3.5,37.3,43,43,0,0,1,26.7,14.1a43.21,43.21,0,0,1,37.4,1.6A44.11,44.11,0,0,1,79.6,29.6l-2.9,1.9A39.19,39.19,0,0,0,62.4,18.7,39.51,39.51,0,0,0,43.5,14a40,40,0,0,0-15.6,3.2,40.9,40.9,0,0,0-12.8,8.5A40.34,40.34,0,0,0,6.6,38.5,39.58,39.58,0,0,0,3.4,54.1,41.07,41.07,0,0,0,6.7,70.5a37.7,37.7,0,0,0,8.7,12.7,41.76,41.76,0,0,0,12.7,8.1,38.53,38.53,0,0,0,15,2.9,48.32,48.32,0,0,0,15.7-2.6V88.3a47.9,47.9,0,0,1-15.2,2.4,38.4,38.4,0,0,1-11.2-1.6,37.5,37.5,0,0,1-10.1-4.8,34.39,34.39,0,0,1-8.1-7.6A33.08,33.08,0,0,1,8.8,66.5a38.83,38.83,0,0,1-2-12.4,35.36,35.36,0,0,1,4.9-18.3A36.46,36.46,0,0,1,43.3,17.6a35.51,35.51,0,0,1,17.3,4.3,36.63,36.63,0,0,1,13,11.7l-2.9,1.9A33.13,33.13,0,0,0,43.3,21a33.4,33.4,0,0,0-12.9,2.6,33.75,33.75,0,0,0-10.6,7,32.12,32.12,0,0,0-7,10.6,33.4,33.4,0,0,0-2.6,12.9A35.81,35.81,0,0,0,12,65.5a30,30,0,0,0,4.9,9.2,33.72,33.72,0,0,0,7.3,6.8,33.06,33.06,0,0,0,9.1,4.3,34.31,34.31,0,0,0,10.1,1.5,43.21,43.21,0,0,0,15.3-2.7V81a42.46,42.46,0,0,1-15,2.8,33.19,33.19,0,0,1-11.3-2,29.12,29.12,0,0,1-9.6-5.7,27.2,27.2,0,0,1-6.7-9.4,32.18,32.18,0,0,1-2.5-12.6A29.68,29.68,0,0,1,28.4,28.4a29.69,29.69,0,0,1,14.9-4,29.44,29.44,0,0,1,24.5,13l-2.9,1.9A25.63,25.63,0,0,0,55.6,31a26.11,26.11,0,0,0-25.4.4,25.48,25.48,0,0,0-9.5,9.5A26,26,0,0,0,17.2,54a30.07,30.07,0,0,0,1.4,9.2,22.74,22.74,0,0,0,3.9,7.4,24.43,24.43,0,0,0,5.8,5.3,27,27,0,0,0,7.1,3.3,29.55,29.55,0,0,0,7.9,1.1,37.1,37.1,0,0,0,15.3-3.2V73.8a36.73,36.73,0,0,1-14.9,3A27.35,27.35,0,0,1,35,75.4a21.87,21.87,0,0,1-7.3-4.1,19,19,0,0,1-5.2-7.1,24.77,24.77,0,0,1-1.9-10,22,22,0,0,1,1.8-8.8,22.06,22.06,0,0,1,12-12,22.49,22.49,0,0,1,19.5.9,21.63,21.63,0,0,1,8,7.3L59,43.5a18.2,18.2,0,0,0-6.8-6.1,19.25,19.25,0,0,0-22.7,3.3,18.65,18.65,0,0,0-5.6,13.6,21,21,0,0,0,1.6,8.6,15.14,15.14,0,0,0,4.4,6,20.83,20.83,0,0,0,6.2,3.4,21.89,21.89,0,0,0,7.3,1.1,34.63,34.63,0,0,0,15-3.3V52.5h4Zm3.5,0h3.5V94.1H65.9Zm6.9,0h3.5V94.1H72.8Zm7,0h3.5V94.1H79.8Z"/><path class="cls-1" d="M93.5,71a42.55,42.55,0,0,1,0-33.8A43,43,0,0,1,116.7,14a42.55,42.55,0,0,1,33.8,0,43,43,0,0,1,23.2,23.2,42.55,42.55,0,0,1,0,33.8,43,43,0,0,1-23.2,23.2,42.55,42.55,0,0,1-33.8,0,43.48,43.48,0,0,1-13.9-9.3A44.61,44.61,0,0,1,93.5,71Zm3.2-32.5a39.63,39.63,0,0,0,0,31.2,40.9,40.9,0,0,0,8.5,12.8A40.34,40.34,0,0,0,118,91a39.62,39.62,0,0,0,31.2,0A40.9,40.9,0,0,0,162,82.5a40.34,40.34,0,0,0,8.5-12.8,39.63,39.63,0,0,0,0-31.2A40.9,40.9,0,0,0,162,25.7a40.34,40.34,0,0,0-12.8-8.5,39.63,39.63,0,0,0-31.2,0,40.9,40.9,0,0,0-12.8,8.5A39.78,39.78,0,0,0,96.7,38.5ZM102,72.4a35.36,35.36,0,0,1-4.9-18.3A35.36,35.36,0,0,1,102,35.8a36.46,36.46,0,0,1,31.6-18.2,35.36,35.36,0,0,1,18.3,4.9,36.11,36.11,0,0,1,13.3,13.3,35.36,35.36,0,0,1,4.9,18.3,35.36,35.36,0,0,1-4.9,18.3,36.11,36.11,0,0,1-13.3,13.3,36.62,36.62,0,0,1-36.6,0A36.11,36.11,0,0,1,102,72.4Zm1.1-31.2a33.3,33.3,0,0,0,0,25.8,33.75,33.75,0,0,0,7,10.6,32.12,32.12,0,0,0,10.6,7,33.3,33.3,0,0,0,25.8,0,33.75,33.75,0,0,0,10.6-7,32.12,32.12,0,0,0,7-10.6,33.3,33.3,0,0,0,0-25.8,33.75,33.75,0,0,0-7-10.6,32.12,32.12,0,0,0-10.6-7,33.3,33.3,0,0,0-25.8,0,33.75,33.75,0,0,0-10.6,7A34.34,34.34,0,0,0,103.1,41.2ZM108,68.9A29.69,29.69,0,0,1,104,54a28.71,28.71,0,0,1,4-14.9,29.68,29.68,0,0,1,25.7-14.8,29.68,29.68,0,0,1,25.7,14.8,29.69,29.69,0,0,1,4,14.9,29.68,29.68,0,0,1-14.8,25.7,29.69,29.69,0,0,1-14.9,4,28.71,28.71,0,0,1-14.9-4A29.44,29.44,0,0,1,108,68.9Zm3-28a26.27,26.27,0,0,0,0,26.2,25.48,25.48,0,0,0,9.5,9.5,26.27,26.27,0,0,0,26.2,0,25.48,25.48,0,0,0,9.5-9.5,26.27,26.27,0,0,0,0-26.2,25.48,25.48,0,0,0-9.5-9.5,26.27,26.27,0,0,0-26.2,0A26.22,26.22,0,0,0,111,40.9Zm1.8,21.9a22.41,22.41,0,0,1,0-17.6,22.06,22.06,0,0,1,12-12,22.41,22.41,0,0,1,17.6,0,22.06,22.06,0,0,1,12,12,22.41,22.41,0,0,1,0,17.6,22.06,22.06,0,0,1-12,12,22.41,22.41,0,0,1-17.6,0,22.06,22.06,0,0,1-12-12Zm7.3-22.3a19.31,19.31,0,0,0,0,27.2,19.2,19.2,0,0,0,32.8-13.6,19.12,19.12,0,0,0-19.2-19.2A18.26,18.26,0,0,0,120.1,40.5Z"/><path class="cls-1" d="M180.3,94.1h-3.8l31.7-80.2H212l31.7,80.2H240L210.2,18.6Zm30.2-67.2,2,4.5L187.7,94.1H184Zm3.9,9.2,1.8,4.8-21,53.2h-3.8Zm3.7,9.6,1.8,4.9L202.7,94.1H199Zm-9.5,38.8L210,81h22.8l1.5,3.5Zm2.7-6.9,1.4-3.5h17.4l1.5,3.5Zm2.7-7,1.4-3.5h11.9l1.4,3.5Zm5.4-56.7,31.7,80.2h-3.8L215.6,13.9Zm7.5,0,31.7,80.2h-3.7L223.2,13.9Zm39.3,80.2h-3.8L230.7,13.9h3.7Z"/><path class="cls-1" d="M272.3,13.9h3.5V94.1h-3.5Zm6.9,0h3.5V94.1h-3.5Zm7,0h3.5V94.1h-3.5Zm7,0h3.5V76.6h27.9v3.5H296.7v3.5h27.9v3.5H296.7v3.5h27.9v3.5H293.2Z"/><path class="cls-1" d="M353.8,43.4a7.6,7.6,0,0,1-1.6-5.1c0-4.6,3.5-7,10.4-7,6.5,0,11.4,1,14.7,2.9l-2.8,2.1c-2.3-1-6.2-1.5-11.9-1.5-2.8,0-4.6.3-5.6.9a2.81,2.81,0,0,0-1.4,2.6,4,4,0,0,0,.8,2.6,3.72,3.72,0,0,0,2.9.9h6A29.56,29.56,0,0,1,377.1,44a22.76,22.76,0,0,1,8.6,6.1,26.42,26.42,0,0,1,5.2,8.9,31.21,31.21,0,0,1,1.8,10.7,28.4,28.4,0,0,1-1.3,8.8,26,26,0,0,1-3.9,7.6,27.59,27.59,0,0,1-15.1,10,39.26,39.26,0,0,1-11.1,1.4,52.64,52.64,0,0,1-17.5-2.8,37.82,37.82,0,0,1-13.6-7.9l2.8-2.1a33.07,33.07,0,0,0,12.4,6.9A51.86,51.86,0,0,0,361.3,94a35.14,35.14,0,0,0,12-1.9,23.27,23.27,0,0,0,8.8-5.3,23.6,23.6,0,0,0,5.3-7.7,24.77,24.77,0,0,0,1.9-9.5,27.31,27.31,0,0,0-2.7-12.2,21.25,21.25,0,0,0-8.3-8.8,25.28,25.28,0,0,0-13.1-3.4h-5.9C356.7,45.3,354.9,44.7,353.8,43.4Zm16,21.3a7.51,7.51,0,0,1,1.6,5c0,4.6-3.5,7-10.4,7-6.6,0-11.5-1-14.8-2.9l2.8-2.1c2.3,1,6.2,1.5,12,1.5,2.8,0,4.6-.3,5.6-.9a2.81,2.81,0,0,0,1.4-2.6,3.07,3.07,0,0,0-3.7-3.4h-5.2A31.07,31.07,0,0,1,347,64.1a24.94,24.94,0,0,1-8.9-6,25.7,25.7,0,0,1-5.3-8.9A32.21,32.21,0,0,1,331,38.4a28.4,28.4,0,0,1,1.3-8.8,26,26,0,0,1,3.9-7.6,29.9,29.9,0,0,1,6.3-6,31,31,0,0,1,8.8-4,39.26,39.26,0,0,1,11.1-1.4,52.64,52.64,0,0,1,17.5,2.8,38.69,38.69,0,0,1,13.6,7.9l-2.8,2.1a33.42,33.42,0,0,0-12.3-6.9,50.94,50.94,0,0,0-15.9-2.4,35.14,35.14,0,0,0-12,1.9,23.27,23.27,0,0,0-8.8,5.3,22.6,22.6,0,0,0-5.3,7.7,24.77,24.77,0,0,0-1.9,9.5,26.21,26.21,0,0,0,2.8,12.3,20.88,20.88,0,0,0,8.4,8.8,26.1,26.1,0,0,0,13.4,3.3h5.3C367,62.7,368.8,63.4,369.8,64.7ZM380,54.8a21.13,21.13,0,0,1,5.5,14.9,19.59,19.59,0,0,1-6.4,15c-4.3,4-10.3,5.9-18.1,5.9a48.4,48.4,0,0,1-14.5-2.1,30.74,30.74,0,0,1-11.2-6l2.7-2.2a27.61,27.61,0,0,0,10,5,44.89,44.89,0,0,0,13,1.8c6.8,0,12-1.6,15.6-4.9A16.13,16.13,0,0,0,382,69.7a17.93,17.93,0,0,0-4.5-12.5c-3-3.3-7.3-4.9-13-4.9H359c-4.7,0-8.2-1.3-10.6-3.9s-3.5-5.9-3.5-10.1a13,13,0,0,1,4.4-10.1c2.9-2.6,7.3-3.9,13.1-3.9a45.64,45.64,0,0,1,11.4,1.4,25.11,25.11,0,0,1,8.7,4.1l-2.8,2.1q-6-4.2-17.4-4.2c-4.9,0-8.4,1-10.7,2.9a9.57,9.57,0,0,0-3.4,7.6,10.89,10.89,0,0,0,2.5,7.6c1.7,1.9,4.4,2.9,8.2,2.9h5.5C371.2,48.8,376.3,50.8,380,54.8Zm-4.9,4.9a14.21,14.21,0,0,1,3.5,10,13,13,0,0,1-4.4,10.1c-2.9,2.6-7.3,3.9-13.1,3.9a45.64,45.64,0,0,1-11.4-1.4,25.11,25.11,0,0,1-8.7-4.1l2.8-2.1q6,4.2,17.4,4.2c4.9,0,8.4-1,10.7-2.9a9.27,9.27,0,0,0,3.4-7.6,11.06,11.06,0,0,0-2.5-7.6c-1.7-1.9-4.4-2.9-8.2-2.9h-5.3c-6.6,0-11.8-2-15.5-5.9a21.11,21.11,0,0,1-5.6-15,19.59,19.59,0,0,1,6.4-15c4.3-4,10.3-5.9,18.1-5.9a48.4,48.4,0,0,1,14.5,2.1,30.74,30.74,0,0,1,11.2,6l-2.7,2.2a27.61,27.61,0,0,0-10-5A44.69,44.69,0,0,0,362.8,21c-6.8,0-12,1.6-15.6,4.9a16.13,16.13,0,0,0-5.4,12.5,17.39,17.39,0,0,0,4.6,12.5c3,3.3,7.4,4.9,13.1,4.9h5.3C369.2,55.8,372.7,57.1,375.1,59.7ZM357.6,8.9V0h-3.5V9.4Zm0,99.6V99.6l-3.5-.5v9.4ZM364.6,0V8.9l3.5.2V0Zm0,99.6v8.9h3.5V99.4Z"/></g></g></svg>