<?xml version="1.0" encoding="utf-8"?>
<!-- Generator: Adobe Illustrator 23.0.2, SVG Export Plug-In . SVG Version: 6.00 Build 0)  -->
<svg version="1.1" id="Layer_1" xmlns="http://www.w3.org/2000/svg" xmlns:xlink="http://www.w3.org/1999/xlink" x="0px" y="0px"
	 viewBox="0 0 612 792" style="enable-background:new 0 0 612 792;" xml:space="preserve">
<style type="text/css">
	.st0{fill:#49318D;}
	.st1{fill:#FAB31D;}
	.st2{fill:#7D7EA9;}
	.st3{fill:#D51D5A;}
	.st4{fill:#F9A05D;}
</style>
<path class="st0" d="M171.6,389.2v41.9c-6.1,2.3-12.5,3.5-19.1,3.5c-5.7,0-11.2-1-16.4-3.1s-9.8-5-13.8-8.7c-4-3.7-7.1-8.3-9.5-13.8
	c-2.4-5.5-3.6-11.4-3.6-17.8c0-5.9,1.2-11.5,3.5-16.9c2.3-5.4,5.4-10,9.3-13.9c3.9-3.9,8.5-7,13.9-9.3s11-3.5,16.9-3.5
	c7.4,0,14.2,1.7,20.5,5.1c6.3,3.4,11.5,8.1,15.5,13.9l-2.9,1.9c-3.7-5.4-8.4-9.7-14.3-12.8c-5.8-3.1-12.1-4.7-18.9-4.7
	c-5.4,0-10.6,1.1-15.6,3.2c-5,2.1-9.2,5-12.8,8.5c-3.6,3.6-6.4,7.9-8.5,12.8c-2.1,5-3.2,10.1-3.2,15.6c0,5.8,1.1,11.3,3.3,16.4
	c2.2,5.1,5.1,9.3,8.7,12.7c3.6,3.4,7.9,6.1,12.7,8.1c4.8,2,9.8,2.9,15,2.9c5.5,0,10.7-0.9,15.7-2.6v-3.3c-4.8,1.6-9.9,2.4-15.2,2.4
	c-3.8,0-7.6-0.5-11.2-1.6c-3.6-1.1-7-2.7-10.1-4.8c-3.1-2.1-5.8-4.6-8.1-7.6c-2.3-2.9-4.1-6.3-5.4-10.2c-1.3-3.9-2-8-2-12.4
	c0-6.6,1.6-12.7,4.9-18.3s7.7-10.1,13.3-13.3s11.7-4.9,18.3-4.9c6.2,0,12,1.4,17.3,4.3c5.3,2.9,9.7,6.8,13,11.7l-2.9,1.9
	c-3-4.5-7-8-11.8-10.6s-10-3.9-15.6-3.9c-4.5,0-8.8,0.9-12.9,2.6c-4.1,1.7-7.6,4.1-10.6,7c-3,3-5.3,6.5-7,10.6
	c-1.7,4.1-2.6,8.4-2.6,12.9c0,4,0.6,7.8,1.8,11.4c1.2,3.5,2.8,6.6,4.9,9.2c2.1,2.6,4.5,4.9,7.3,6.8c2.8,1.9,5.8,3.3,9.1,4.3
	c3.3,1,6.6,1.5,10.1,1.5c5.4,0,10.5-0.9,15.3-2.7V418c-4.8,1.8-9.8,2.8-15,2.8c-3.9,0-7.7-0.7-11.3-2s-6.8-3.2-9.6-5.7
	c-2.8-2.5-5-5.6-6.7-9.4c-1.6-3.8-2.5-8-2.5-12.6c0-5.4,1.3-10.3,4-14.9c2.6-4.6,6.2-8.1,10.8-10.8c4.6-2.6,9.5-4,14.9-4
	c5,0,9.7,1.2,14,3.5c4.3,2.3,7.8,5.5,10.5,9.5l-2.9,1.9c-2.4-3.5-5.5-6.3-9.3-8.3c-3.8-2-7.9-3.1-12.3-3.1c-4.7,0-9.1,1.2-13.1,3.5
	c-4,2.3-7.2,5.5-9.5,9.5c-2.3,4-3.5,8.4-3.5,13.1c0,3.3,0.5,6.4,1.4,9.2c0.9,2.8,2.2,5.3,3.9,7.4c1.6,2.1,3.6,3.8,5.8,5.3
	c2.2,1.5,4.6,2.5,7.1,3.3c2.5,0.7,5.2,1.1,7.9,1.1c5.5,0,10.6-1.1,15.3-3.2v-3.3c-4.6,2-9.5,3-14.9,3c-3.1,0-6-0.5-8.7-1.4
	c-2.7-0.9-5.2-2.3-7.3-4.1c-2.2-1.8-3.9-4.2-5.2-7.1c-1.3-3-1.9-6.3-1.9-10c0-3.1,0.6-6,1.8-8.8c1.2-2.8,2.8-5.2,4.8-7.2
	c2-2,4.4-3.6,7.2-4.8c2.8-1.2,5.7-1.8,8.8-1.8c3.8,0,7.4,0.9,10.7,2.7c3.3,1.8,6,4.2,8,7.3l-2.9,1.9c-1.7-2.6-4-4.6-6.8-6.1
	c-2.8-1.5-5.8-2.3-9.1-2.3c-5.3,0-9.8,1.9-13.6,5.6c-3.7,3.7-5.6,8.3-5.6,13.6c0,3.3,0.5,6.1,1.6,8.6c1.1,2.5,2.5,4.5,4.4,6
	c1.9,1.5,3.9,2.6,6.2,3.4s4.7,1.1,7.3,1.1c5.4,0,10.3-1.1,15-3.3v-17.6H171.6z M175.1,389.2h3.5v41.9h-3.5V389.2z M182,389.2h3.5
	v41.9H182V389.2z M189,389.2h3.5v41.9H189V389.2z"/>
<path class="st1" d="M202.7,408c-2.3-5.4-3.5-11-3.5-16.9s1.2-11.5,3.5-16.9s5.4-10,9.3-13.9c3.9-3.9,8.5-7,13.9-9.3
	s11-3.5,16.9-3.5c5.9,0,11.5,1.2,16.9,3.5c5.4,2.3,10,5.4,13.9,9.3c3.9,3.9,7,8.5,9.3,13.9s3.5,11,3.5,16.9s-1.2,11.5-3.5,16.9
	c-2.3,5.4-5.4,10-9.3,13.9c-3.9,3.9-8.5,7-13.9,9.3c-5.4,2.3-11,3.5-16.9,3.5c-5.9,0-11.5-1.2-16.9-3.5c-5.4-2.3-10-5.4-13.9-9.3
	C208.1,418,205,413.3,202.7,408z M205.9,375.5c-2.1,5-3.2,10.1-3.2,15.6s1.1,10.6,3.2,15.6c2.1,5,5,9.2,8.5,12.8
	c3.6,3.6,7.9,6.4,12.8,8.5c5,2.1,10.1,3.2,15.6,3.2c5.4,0,10.6-1.1,15.6-3.2c5-2.1,9.2-5,12.8-8.5c3.6-3.6,6.4-7.9,8.5-12.8
	c2.1-5,3.2-10.1,3.2-15.6s-1.1-10.6-3.2-15.6c-2.1-5-5-9.2-8.5-12.8c-3.6-3.6-7.9-6.4-12.8-8.5c-5-2.1-10.1-3.2-15.6-3.2
	c-5.4,0-10.6,1.1-15.6,3.2c-5,2.1-9.2,5-12.8,8.5C210.9,366.2,208,370.5,205.9,375.5z M211.2,409.4c-3.3-5.6-4.9-11.7-4.9-18.3
	s1.6-12.7,4.9-18.3c3.3-5.6,7.7-10.1,13.3-13.3s11.7-4.9,18.3-4.9c6.6,0,12.7,1.6,18.3,4.9c5.6,3.3,10.1,7.7,13.3,13.3
	c3.3,5.6,4.9,11.7,4.9,18.3s-1.6,12.7-4.9,18.3c-3.3,5.6-7.7,10.1-13.3,13.3c-5.6,3.3-11.7,4.9-18.3,4.9c-6.6,0-12.7-1.6-18.3-4.9
	C218.9,419.4,214.4,415,211.2,409.4z M212.3,378.2c-1.7,4.1-2.6,8.4-2.6,12.9s0.9,8.8,2.6,12.9c1.7,4.1,4.1,7.6,7,10.6
	c3,3,6.5,5.3,10.6,7c4.1,1.7,8.4,2.6,12.9,2.6c4.5,0,8.8-0.9,12.9-2.6c4.1-1.7,7.6-4.1,10.6-7c3-3,5.3-6.5,7-10.6
	c1.7-4.1,2.6-8.4,2.6-12.9s-0.9-8.8-2.6-12.9c-1.7-4.1-4.1-7.6-7-10.6c-3-3-6.5-5.3-10.6-7c-4.1-1.7-8.4-2.6-12.9-2.6
	c-4.5,0-8.8,0.9-12.9,2.6c-4.1,1.7-7.6,4.1-10.6,7C216.4,370.5,214.1,374.1,212.3,378.2z M217.2,405.9c-2.6-4.6-4-9.5-4-14.9
	s1.3-10.3,4-14.9s6.2-8.1,10.8-10.8c4.6-2.6,9.5-4,14.9-4c5.4,0,10.3,1.3,14.9,4c4.6,2.6,8.1,6.2,10.8,10.8c2.6,4.6,4,9.5,4,14.9
	s-1.3,10.3-4,14.9c-2.6,4.6-6.2,8.1-10.8,10.8c-4.6,2.6-9.5,4-14.9,4c-5.4,0-10.3-1.3-14.9-4C223.4,414,219.8,410.4,217.2,405.9z
	 M220.2,377.9c-2.3,4-3.5,8.4-3.5,13.1s1.2,9.1,3.5,13.1c2.3,4,5.5,7.2,9.5,9.5c4,2.3,8.4,3.5,13.1,3.5c4.7,0,9.1-1.2,13.1-3.5
	c4-2.3,7.2-5.5,9.5-9.5c2.3-4,3.5-8.4,3.5-13.1s-1.2-9.1-3.5-13.1c-2.3-4-5.5-7.2-9.5-9.5c-4-2.3-8.4-3.5-13.1-3.5
	c-4.7,0-9.1,1.2-13.1,3.5C225.7,370.7,222.6,373.9,220.2,377.9z M222,399.8c-1.2-2.8-1.8-5.7-1.8-8.8s0.6-6,1.8-8.8
	c1.2-2.8,2.8-5.2,4.8-7.2c2-2,4.4-3.6,7.2-4.8c2.8-1.2,5.7-1.8,8.8-1.8c3.1,0,6,0.6,8.8,1.8c2.8,1.2,5.2,2.8,7.2,4.8
	c2,2,3.6,4.4,4.8,7.2c1.2,2.8,1.8,5.7,1.8,8.8s-0.6,6-1.8,8.8c-1.2,2.8-2.8,5.2-4.8,7.2c-2,2-4.4,3.6-7.2,4.8
	c-2.8,1.2-5.7,1.8-8.8,1.8c-3.1,0-6-0.6-8.8-1.8c-2.8-1.2-5.2-2.8-7.2-4.8C224.8,405,223.2,402.6,222,399.8z M229.3,377.5
	c-3.7,3.7-5.6,8.3-5.6,13.6s1.9,9.8,5.6,13.6c3.7,3.7,8.3,5.6,13.6,5.6c5.3,0,9.8-1.9,13.6-5.6c3.7-3.7,5.6-8.3,5.6-13.6
	s-1.9-9.8-5.6-13.6c-3.7-3.7-8.3-5.6-13.6-5.6C237.6,371.9,233,373.7,229.3,377.5z"/>
<path class="st2" d="M289.5,431.1h-3.8l31.7-80.2h3.8l31.7,80.2h-3.7l-29.8-75.5L289.5,431.1z M319.7,363.9l2,4.5l-24.8,62.7h-3.7
	L319.7,363.9z M323.6,373.1l1.8,4.8l-21,53.2h-3.8L323.6,373.1z M327.3,382.7l1.8,4.9l-17.2,43.5h-3.7L327.3,382.7z M317.8,421.5
	l1.4-3.5H342l1.5,3.5H317.8z M320.5,414.6l1.4-3.5h17.4l1.5,3.5H320.5z M323.2,407.6l1.4-3.5h11.9l1.4,3.5H323.2z M328.6,350.9
	l31.7,80.2h-3.8l-31.7-80.2H328.6z M336.1,350.9l31.7,80.2h-3.7l-31.7-80.2H336.1z M375.4,431.1h-3.8l-31.7-80.2h3.7L375.4,431.1z"
	/>
<path class="st3" d="M381.5,350.9h3.5v80.2h-3.5V350.9z M388.4,350.9h3.5v80.2h-3.5V350.9z M395.4,350.9h3.5v80.2h-3.5V350.9z
	 M402.4,350.9h3.5v62.7h27.9v3.5h-27.9v3.5h27.9v3.5h-27.9v3.5h27.9v3.5h-31.4V350.9z"/>
<path class="st4" d="M463,380.4c-1.1-1.3-1.6-3-1.6-5.1c0-4.6,3.5-7,10.4-7c6.5,0,11.4,1,14.7,2.9l-2.8,2.1c-2.3-1-6.2-1.5-11.9-1.5
	c-2.8,0-4.6,0.3-5.6,0.9s-1.4,1.5-1.4,2.6c0,1.1,0.3,2,0.8,2.6s1.5,0.9,2.9,0.9h6c4.4,0,8.3,0.7,11.8,2.2c3.5,1.5,6.4,3.5,8.6,6.1
	c2.3,2.6,4,5.5,5.2,8.9c1.2,3.3,1.8,6.9,1.8,10.7c0,3.1-0.4,6-1.3,8.8s-2.2,5.3-3.9,7.6c-1.8,2.3-3.9,4.3-6.3,6s-5.4,3-8.8,4
	c-3.4,1-7.1,1.4-11.1,1.4c-6.2,0-12.1-0.9-17.5-2.8c-5.4-1.9-10-4.5-13.6-7.9l2.8-2.1c3.3,3,7.4,5.3,12.4,6.9
	c5,1.6,10.3,2.4,15.9,2.4c4.4,0,8.4-0.6,12-1.9c3.6-1.3,6.5-3,8.8-5.3s4.1-4.8,5.3-7.7s1.9-6.1,1.9-9.5c0-4.5-0.9-8.5-2.7-12.2
	c-1.8-3.6-4.6-6.6-8.3-8.8s-8.1-3.4-13.1-3.4h-5.9C465.9,382.3,464.1,381.7,463,380.4z M479,401.7c1.1,1.3,1.6,3,1.6,5
	c0,4.6-3.5,7-10.4,7c-6.6,0-11.5-1-14.8-2.9l2.8-2.1c2.3,1,6.2,1.5,12,1.5c2.8,0,4.6-0.3,5.6-0.9c1-0.6,1.4-1.5,1.4-2.6
	c0-1.1-0.3-1.9-0.8-2.5c-0.5-0.6-1.5-0.9-2.9-0.9h-5.2c-4.5,0-8.5-0.7-12.1-2.2c-3.6-1.5-6.6-3.5-8.9-6s-4.1-5.5-5.3-8.9
	c-1.2-3.4-1.8-7-1.8-10.8c0-3.1,0.4-6,1.3-8.8c0.9-2.8,2.2-5.3,3.9-7.6c1.8-2.3,3.9-4.3,6.3-6c2.5-1.7,5.4-3,8.8-4
	c3.4-1,7.1-1.4,11.1-1.4c6.2,0,12.1,0.9,17.5,2.8c5.4,1.9,9.9,4.5,13.6,7.9l-2.8,2.1c-3.3-3-7.4-5.3-12.3-6.9s-10.2-2.4-15.9-2.4
	c-4.4,0-8.4,0.6-12,1.9c-3.6,1.3-6.5,3-8.8,5.3c-2.3,2.2-4.1,4.8-5.3,7.7s-1.9,6.1-1.9,9.5c0,4.6,0.9,8.6,2.8,12.3
	c1.8,3.6,4.6,6.6,8.4,8.8c3.8,2.2,8.2,3.3,13.4,3.3h5.3C476.2,399.7,478,400.4,479,401.7z M489.2,391.8c3.7,4,5.5,9,5.5,14.9
	c0,6-2.1,11-6.4,15c-4.3,4-10.3,5.9-18.1,5.9c-5.2,0-10-0.7-14.5-2.1c-4.5-1.4-8.2-3.4-11.2-6l2.7-2.2c2.6,2.2,6,3.8,10,5
	c4,1.2,8.3,1.8,13,1.8c6.8,0,12-1.6,15.6-4.9c3.6-3.3,5.4-7.4,5.4-12.5c0-5-1.5-9.2-4.5-12.5c-3-3.3-7.3-4.9-13-4.9h-5.5
	c-4.7,0-8.2-1.3-10.6-3.9c-2.4-2.6-3.5-5.9-3.5-10.1c0-4.1,1.5-7.5,4.4-10.1c2.9-2.6,7.3-3.9,13.1-3.9c4.1,0,7.9,0.5,11.4,1.4
	c3.5,1,6.4,2.3,8.7,4.1l-2.8,2.1c-4-2.8-9.8-4.2-17.4-4.2c-4.9,0-8.4,1-10.7,2.9c-2.2,1.9-3.4,4.4-3.4,7.6c0,3.2,0.8,5.7,2.5,7.6
	c1.7,1.9,4.4,2.9,8.2,2.9h5.5C480.4,385.8,485.5,387.8,489.2,391.8z M484.3,396.7c2.4,2.6,3.5,6,3.5,10c0,4.1-1.5,7.5-4.4,10.1
	c-2.9,2.6-7.3,3.9-13.1,3.9c-4.1,0-7.9-0.5-11.4-1.4c-3.5-1-6.4-2.3-8.7-4.1l2.8-2.1c4,2.8,9.8,4.2,17.4,4.2c4.9,0,8.4-1,10.7-2.9
	s3.4-4.4,3.4-7.6c0-3.1-0.8-5.7-2.5-7.6s-4.4-2.9-8.2-2.9h-5.3c-6.6,0-11.8-2-15.5-5.9c-3.7-4-5.6-8.9-5.6-15c0-6,2.1-11,6.4-15
	c4.3-4,10.3-5.9,18.1-5.9c5.2,0,10,0.7,14.5,2.1c4.5,1.4,8.2,3.4,11.2,6l-2.7,2.2c-2.6-2.2-6-3.8-10-5c-4-1.2-8.3-1.8-12.9-1.8
	c-6.8,0-12,1.6-15.6,4.9c-3.6,3.3-5.4,7.4-5.4,12.5c0,5.1,1.5,9.2,4.6,12.5c3,3.3,7.4,4.9,13.1,4.9h5.3
	C478.4,392.8,481.9,394.1,484.3,396.7z M466.8,345.9V337h-3.5v9.4L466.8,345.9z M466.8,445.5v-8.9l-3.5-0.5v9.4H466.8z M473.8,337
	v8.9l3.5,0.2V337H473.8z M473.8,436.6v8.9h3.5v-9.1L473.8,436.6z"/>
</svg>
