<svg xmlns="http://www.w3.org/2000/svg" viewBox="0 0 50.92 50.92"><defs><style>.cls-1{fill:#fff;}.cls-2{fill:#231f20;stroke:#fff;stroke-miterlimit:10;stroke-width:0.3px;}</style></defs><title>Asset 44000px</title><g id="Layer_2" data-name="Layer 2"><g id="Layer_1-2" data-name="Layer 1"><circle class="cls-1" cx="25.46" cy="25.46" r="25.46"/><path class="cls-2" d="M10.8,35.4s2.33,1.78,4.49,1.1,3.39-2.11,2.92-4.27-4.55-9.54-4.87-11.78c-.37-2.59.15-6.37,4.06-7.93,4.57-1.82,7.91-2.27,15-.61s6,9.35,4.39,11.64c0,0-3.6,6.77-3.64,7.58S31.93,34.3,34.6,36s5-.21,5.72-.47c0,0-1.74,3.6-4.57,4.2s-4,.25-6.53-1.32-2.83-4.87-2.16-6.9S30.58,23,30.79,21,32,16,28.42,14.57s-7.68.77-8,1.95-1.11,2,1.18,8.51,3.82,9.88,1.53,12.24a8,8,0,0,1-7.29,2.62S12,38.71,10.8,35.4Z"/></g></g></svg>