<svg xmlns="http://www.w3.org/2000/svg" viewBox="0 0 178.49 44.66"><defs><style>.cls-1,.cls-2{fill:#fff;}.cls-1{opacity:0.6;isolation:isolate;}</style></defs><title>Asset 2</title><g id="Layer_2" data-name="Layer 2"><g id="Layer_1-2" data-name="Layer 1"><path class="cls-1" d="M151.49,12.18l9.26,23.24A13.5,13.5,0,0,0,178.27,43l.22-.09L164.79,8.51A13.5,13.5,0,0,0,147.27,1l-.21.09,4,10Z"/><path class="cls-1" d="M68.4,13.62l3.71-9.3-.2-.08a12.56,12.56,0,0,0-16.31,7h0L42.88,43.14l.2.08a12.54,12.54,0,0,0,16.31-7h0L68,14.64Z"/><path class="cls-2" d="M4.11,14.64l8.61,21.58a12.54,12.54,0,0,0,16.29,7h0l.2-.08L16.5,11.24a12.54,12.54,0,0,0-16.29-7h0L0,4.32l3.7,9.3Z"/><path class="cls-2" d="M27.48,14.64l8.61,21.58a12.54,12.54,0,0,0,16.29,7h0l.2-.08L39.87,11.25a12.54,12.54,0,0,0-16.29-7h0l-.2.08,3.71,9.3Z"/><path class="cls-2" d="M153.53,11.1l4-10L157.31,1a13.5,13.5,0,0,0-17.54,7.54h0L126.07,42.89l.21.09a13.49,13.49,0,0,0,17.54-7.53v0L153.1,12.2Z"/><path class="cls-1" d="M111.43,44.61h9.3v-.2a11.66,11.66,0,0,0-11.66-11.64h0l-31.9.06V33A11.64,11.64,0,0,0,88.83,44.66h21.58Z"/><path class="cls-2" d="M77.11,11.41V33A11.65,11.65,0,0,0,88.79,44.63H89l0-31.9A11.66,11.66,0,0,0,77.27,1.09h-.21v9.3Z"/></g></g></svg>